M48
;DRILL file {Pcbnew (2013-mar-13)-testing} date Mon 16 Sep 2013 17:51:22 ART
;FORMAT={-:-/ absolute / inch / decimal}
FMAT,2
INCH,TZ
T1C0.032
T2C0.036
T3C0.040
T4C0.044
T5C0.050
T6C0.080
T7C0.120
%
G90
G05
M72
T1
X1.9235Y-1.6259
X1.9235Y-3.6459
X1.9235Y-4.9724
X1.9235Y-6.9924
X2.0535Y-1.4259
X2.0535Y-2.6659
X2.0535Y-4.7724
X2.0535Y-6.0124
X2.2235Y-1.6259
X2.2235Y-4.9724
X2.2535Y-3.1859
X2.2535Y-3.9059
X2.2535Y-6.5324
X2.2535Y-7.2524
X2.4035Y-2.2059
X2.4035Y-3.4359
X2.4035Y-5.5524
X2.4035Y-6.7824
X2.4835Y-1.4259
X2.4835Y-3.6459
X2.4835Y-4.7724
X2.4835Y-6.9924
X2.5635Y-2.5559
X2.5635Y-2.8559
X2.5635Y-5.9024
X2.5635Y-6.2024
X2.6635Y-2.5559
X2.6635Y-2.8559
X2.6635Y-5.9024
X2.6635Y-6.2024
X2.7135Y-3.4359
X2.7135Y-6.7824
X2.7635Y-2.0859
X2.7635Y-2.5559
X2.7635Y-2.8559
X2.7635Y-5.4324
X2.7635Y-5.9024
X2.7635Y-6.2024
X2.7835Y-3.6459
X2.7835Y-3.8059
X2.7835Y-3.9059
X2.7835Y-6.9924
X2.7835Y-7.1524
X2.7835Y-7.2524
X2.8635Y-1.8059
X2.8635Y-2.0859
X2.8635Y-2.5559
X2.8635Y-2.8559
X2.8635Y-5.1524
X2.8635Y-5.4324
X2.8635Y-5.9024
X2.8635Y-6.2024
X2.9635Y-2.5559
X2.9635Y-2.8559
X2.9635Y-5.9024
X2.9635Y-6.2024
X3.0135Y-3.4359
X3.0135Y-3.8059
X3.0135Y-3.9059
X3.0135Y-6.7824
X3.0135Y-7.1524
X3.0135Y-7.2524
X3.0635Y-1.8059
X3.0635Y-2.0859
X3.0635Y-2.5559
X3.0635Y-2.8559
X3.0635Y-5.1524
X3.0635Y-5.4324
X3.0635Y-5.9024
X3.0635Y-6.2024
X3.1635Y-2.0859
X3.1635Y-2.5559
X3.1635Y-2.8559
X3.1635Y-3.3959
X3.1635Y-3.4959
X3.1635Y-5.4324
X3.1635Y-5.9024
X3.1635Y-6.2024
X3.1635Y-6.7424
X3.1635Y-6.8424
X3.2435Y-3.8059
X3.2435Y-3.9059
X3.2435Y-7.1524
X3.2435Y-7.2524
X3.2635Y-2.5559
X3.2635Y-2.8559
X3.2635Y-5.9024
X3.2635Y-6.2024
X3.3635Y-1.8459
X3.3635Y-1.9459
X3.3635Y-2.1059
X3.3635Y-2.5559
X3.3635Y-2.8559
X3.3635Y-3.3159
X3.3635Y-3.6159
X3.3635Y-5.1924
X3.3635Y-5.2924
X3.3635Y-5.4524
X3.3635Y-5.9024
X3.3635Y-6.2024
X3.3635Y-6.6624
X3.3635Y-6.9624
X3.4635Y-2.5559
X3.4635Y-2.8559
X3.4635Y-5.9024
X3.4635Y-6.2024
X3.4735Y-3.8059
X3.4735Y-3.9059
X3.4735Y-7.1524
X3.4735Y-7.2524
X3.4935Y-1.6259
X3.4935Y-4.9724
X3.5135Y-3.3159
X3.5135Y-3.6159
X3.5135Y-6.6624
X3.5135Y-6.9624
X3.5635Y-2.5559
X3.5635Y-2.8559
X3.5635Y-5.9024
X3.5635Y-6.2024
X3.6635Y-2.5559
X3.6635Y-2.8559
X3.6635Y-3.3159
X3.6635Y-3.6159
X3.6635Y-5.9024
X3.6635Y-6.2024
X3.6635Y-6.6624
X3.6635Y-6.9624
X3.7635Y-2.5559
X3.7635Y-2.8559
X3.7635Y-5.9024
X3.7635Y-6.2024
X3.8435Y-3.5859
X3.8435Y-3.8859
X3.8435Y-6.9324
X3.8435Y-7.2324
X3.8635Y-2.5559
X3.8635Y-2.8559
X3.8635Y-5.9024
X3.8635Y-6.2024
X4.0335Y-1.4259
X4.0335Y-4.7724
X4.0835Y-2.3559
X4.0835Y-5.7024
X4.2835Y-1.4259
X4.2835Y-4.7724
X4.3835Y-1.4259
X4.3835Y-2.1059
X4.3835Y-2.3559
X4.3835Y-4.7724
X4.3835Y-5.4524
X4.3835Y-5.7024
X4.4235Y-3.2259
X4.4235Y-3.5259
X4.4235Y-6.5724
X4.4235Y-6.8724
X4.5235Y-3.2259
X4.5235Y-3.5259
X4.5235Y-6.5724
X4.5235Y-6.8724
X4.5935Y-1.7659
X4.5935Y-2.0659
X4.5935Y-5.1124
X4.5935Y-5.4124
X4.6235Y-1.4159
X4.6235Y-1.5159
X4.6235Y-3.2259
X4.6235Y-3.5259
X4.6235Y-4.7624
X4.6235Y-4.8624
X4.6235Y-6.5724
X4.6235Y-6.8724
X4.7235Y-3.2259
X4.7235Y-3.5259
X4.7235Y-6.5724
X4.7235Y-6.8724
X4.8135Y-1.2459
X4.8135Y-2.0259
X4.8135Y-4.5924
X4.8135Y-5.3724
X4.8235Y-3.2259
X4.8235Y-3.5259
X4.8235Y-6.5724
X4.8235Y-6.8724
X4.8635Y-2.6659
X4.8635Y-6.0124
X4.9235Y-3.2259
X4.9235Y-3.5259
X4.9235Y-6.5724
X4.9235Y-6.8724
X4.9935Y-1.3959
X4.9935Y-4.7424
X5.0035Y-2.5259
X5.0035Y-5.8724
X5.0235Y-3.2259
X5.0235Y-3.5259
X5.0235Y-6.5724
X5.0235Y-6.8724
X5.0935Y-1.3959
X5.0935Y-4.7424
X5.1035Y-2.5259
X5.1035Y-5.8724
X5.1235Y-3.2259
X5.1235Y-3.5259
X5.1235Y-6.5724
X5.1235Y-6.8724
X5.2835Y-2.7859
X5.2835Y-3.5259
X5.2835Y-6.1324
X5.2835Y-6.8724
X5.4235Y-2.1359
X5.4235Y-5.4824
X5.5235Y-2.1359
X5.5235Y-2.6659
X5.5235Y-5.4824
X5.5235Y-6.0124
X7.6715Y-1.6259
X7.6715Y-3.6459
X7.6715Y-4.9724
X7.6715Y-6.9924
X7.8015Y-1.4259
X7.8015Y-2.6659
X7.8015Y-4.7724
X7.8015Y-6.0124
X7.9715Y-1.6259
X7.9715Y-4.9724
X8.0015Y-3.1859
X8.0015Y-3.9059
X8.0015Y-6.5324
X8.0015Y-7.2524
X8.1515Y-2.2059
X8.1515Y-3.4359
X8.1515Y-5.5524
X8.1515Y-6.7824
X8.2315Y-1.4259
X8.2315Y-3.6459
X8.2315Y-4.7724
X8.2315Y-6.9924
X8.3115Y-2.5559
X8.3115Y-2.8559
X8.3115Y-5.9024
X8.3115Y-6.2024
X8.4115Y-2.5559
X8.4115Y-2.8559
X8.4115Y-5.9024
X8.4115Y-6.2024
X8.4615Y-3.4359
X8.4615Y-6.7824
X8.5115Y-2.0859
X8.5115Y-2.5559
X8.5115Y-2.8559
X8.5115Y-5.4324
X8.5115Y-5.9024
X8.5115Y-6.2024
X8.5315Y-3.6459
X8.5315Y-3.8059
X8.5315Y-3.9059
X8.5315Y-6.9924
X8.5315Y-7.1524
X8.5315Y-7.2524
X8.6115Y-1.8059
X8.6115Y-2.0859
X8.6115Y-2.5559
X8.6115Y-2.8559
X8.6115Y-5.1524
X8.6115Y-5.4324
X8.6115Y-5.9024
X8.6115Y-6.2024
X8.7115Y-2.5559
X8.7115Y-2.8559
X8.7115Y-5.9024
X8.7115Y-6.2024
X8.7615Y-3.4359
X8.7615Y-3.8059
X8.7615Y-3.9059
X8.7615Y-6.7824
X8.7615Y-7.1524
X8.7615Y-7.2524
X8.8115Y-1.8059
X8.8115Y-2.0859
X8.8115Y-2.5559
X8.8115Y-2.8559
X8.8115Y-5.1524
X8.8115Y-5.4324
X8.8115Y-5.9024
X8.8115Y-6.2024
X8.9115Y-2.0859
X8.9115Y-2.5559
X8.9115Y-2.8559
X8.9115Y-3.3959
X8.9115Y-3.4959
X8.9115Y-5.4324
X8.9115Y-5.9024
X8.9115Y-6.2024
X8.9115Y-6.7424
X8.9115Y-6.8424
X8.9915Y-3.8059
X8.9915Y-3.9059
X8.9915Y-7.1524
X8.9915Y-7.2524
X9.0115Y-2.5559
X9.0115Y-2.8559
X9.0115Y-5.9024
X9.0115Y-6.2024
X9.1115Y-1.8459
X9.1115Y-1.9459
X9.1115Y-2.1059
X9.1115Y-2.5559
X9.1115Y-2.8559
X9.1115Y-3.3159
X9.1115Y-3.6159
X9.1115Y-5.1924
X9.1115Y-5.2924
X9.1115Y-5.4524
X9.1115Y-5.9024
X9.1115Y-6.2024
X9.1115Y-6.6624
X9.1115Y-6.9624
X9.2115Y-2.5559
X9.2115Y-2.8559
X9.2115Y-5.9024
X9.2115Y-6.2024
X9.2215Y-3.8059
X9.2215Y-3.9059
X9.2215Y-7.1524
X9.2215Y-7.2524
X9.2415Y-1.6259
X9.2415Y-4.9724
X9.2615Y-3.3159
X9.2615Y-3.6159
X9.2615Y-6.6624
X9.2615Y-6.9624
X9.3115Y-2.5559
X9.3115Y-2.8559
X9.3115Y-5.9024
X9.3115Y-6.2024
X9.4115Y-2.5559
X9.4115Y-2.8559
X9.4115Y-3.3159
X9.4115Y-3.6159
X9.4115Y-5.9024
X9.4115Y-6.2024
X9.4115Y-6.6624
X9.4115Y-6.9624
X9.5115Y-2.5559
X9.5115Y-2.8559
X9.5115Y-5.9024
X9.5115Y-6.2024
X9.5915Y-3.5859
X9.5915Y-3.8859
X9.5915Y-6.9324
X9.5915Y-7.2324
X9.6115Y-2.5559
X9.6115Y-2.8559
X9.6115Y-5.9024
X9.6115Y-6.2024
X9.7815Y-1.4259
X9.7815Y-4.7724
X9.8315Y-2.3559
X9.8315Y-5.7024
X10.0315Y-1.4259
X10.0315Y-4.7724
X10.1315Y-1.4259
X10.1315Y-2.1059
X10.1315Y-2.3559
X10.1315Y-4.7724
X10.1315Y-5.4524
X10.1315Y-5.7024
X10.1715Y-3.2259
X10.1715Y-3.5259
X10.1715Y-6.5724
X10.1715Y-6.8724
X10.2715Y-3.2259
X10.2715Y-3.5259
X10.2715Y-6.5724
X10.2715Y-6.8724
X10.3415Y-1.7659
X10.3415Y-2.0659
X10.3415Y-5.1124
X10.3415Y-5.4124
X10.3715Y-1.4159
X10.3715Y-1.5159
X10.3715Y-3.2259
X10.3715Y-3.5259
X10.3715Y-4.7624
X10.3715Y-4.8624
X10.3715Y-6.5724
X10.3715Y-6.8724
X10.4715Y-3.2259
X10.4715Y-3.5259
X10.4715Y-6.5724
X10.4715Y-6.8724
X10.5615Y-1.2459
X10.5615Y-2.0259
X10.5615Y-4.5924
X10.5615Y-5.3724
X10.5715Y-3.2259
X10.5715Y-3.5259
X10.5715Y-6.5724
X10.5715Y-6.8724
X10.6115Y-2.6659
X10.6115Y-6.0124
X10.6715Y-3.2259
X10.6715Y-3.5259
X10.6715Y-6.5724
X10.6715Y-6.8724
X10.7415Y-1.3959
X10.7415Y-4.7424
X10.7515Y-2.5259
X10.7515Y-5.8724
X10.7715Y-3.2259
X10.7715Y-3.5259
X10.7715Y-6.5724
X10.7715Y-6.8724
X10.8415Y-1.3959
X10.8415Y-4.7424
X10.8515Y-2.5259
X10.8515Y-5.8724
X10.8715Y-3.2259
X10.8715Y-3.5259
X10.8715Y-6.5724
X10.8715Y-6.8724
X11.0315Y-2.7859
X11.0315Y-3.5259
X11.0315Y-6.1324
X11.0315Y-6.8724
X11.1715Y-2.1359
X11.1715Y-5.4824
X11.2715Y-2.1359
X11.2715Y-2.6659
X11.2715Y-5.4824
X11.2715Y-6.0124
T2
X4.4235Y-2.9259
X4.4235Y-6.2724
X4.5235Y-2.9259
X4.5235Y-6.2724
X4.6035Y-3.7909
X4.6035Y-7.1374
X4.6585Y-3.9009
X4.6585Y-7.2474
X4.7135Y-3.7909
X4.7135Y-7.1374
X4.7235Y-2.9259
X4.7235Y-6.2724
X4.7685Y-3.9009
X4.7685Y-7.2474
X4.8235Y-2.9259
X4.8235Y-3.7909
X4.8235Y-6.2724
X4.8235Y-7.1374
X4.8785Y-3.9009
X4.8785Y-7.2474
X4.9335Y-3.7909
X4.9335Y-7.1374
X4.9885Y-3.9009
X4.9885Y-7.2474
X4.9935Y-1.6159
X4.9935Y-4.9624
X5.0035Y-1.9359
X5.0035Y-2.2759
X5.0035Y-5.2824
X5.0035Y-5.6224
X5.0235Y-2.9259
X5.0235Y-6.2724
X5.0435Y-3.7909
X5.0435Y-7.1374
X5.0935Y-1.6159
X5.0935Y-4.9624
X5.1035Y-1.9359
X5.1035Y-2.0359
X5.1035Y-2.2759
X5.1035Y-5.2824
X5.1035Y-5.3824
X5.1035Y-5.6224
X5.1235Y-2.9259
X5.1235Y-6.2724
X5.4235Y-2.9259
X5.4235Y-3.2259
X5.4235Y-3.5259
X5.4235Y-6.2724
X5.4235Y-6.5724
X5.4235Y-6.8724
X5.5235Y-2.9259
X5.5235Y-3.2259
X5.5235Y-3.5259
X5.5235Y-6.2724
X5.5235Y-6.5724
X5.5235Y-6.8724
X10.1715Y-2.9259
X10.1715Y-6.2724
X10.2715Y-2.9259
X10.2715Y-6.2724
X10.3515Y-3.7909
X10.3515Y-7.1374
X10.4065Y-3.9009
X10.4065Y-7.2474
X10.4615Y-3.7909
X10.4615Y-7.1374
X10.4715Y-2.9259
X10.4715Y-6.2724
X10.5165Y-3.9009
X10.5165Y-7.2474
X10.5715Y-2.9259
X10.5715Y-3.7909
X10.5715Y-6.2724
X10.5715Y-7.1374
X10.6265Y-3.9009
X10.6265Y-7.2474
X10.6815Y-3.7909
X10.6815Y-7.1374
X10.7365Y-3.9009
X10.7365Y-7.2474
X10.7415Y-1.6159
X10.7415Y-4.9624
X10.7515Y-1.9359
X10.7515Y-2.2759
X10.7515Y-5.2824
X10.7515Y-5.6224
X10.7715Y-2.9259
X10.7715Y-6.2724
X10.7915Y-3.7909
X10.7915Y-7.1374
X10.8415Y-1.6159
X10.8415Y-4.9624
X10.8515Y-1.9359
X10.8515Y-2.0359
X10.8515Y-2.2759
X10.8515Y-5.2824
X10.8515Y-5.3824
X10.8515Y-5.6224
X10.8715Y-2.9259
X10.8715Y-6.2724
X11.1715Y-2.9259
X11.1715Y-3.2259
X11.1715Y-3.5259
X11.1715Y-6.2724
X11.1715Y-6.5724
X11.1715Y-6.8724
X11.2715Y-2.9259
X11.2715Y-3.2259
X11.2715Y-3.5259
X11.2715Y-6.2724
X11.2715Y-6.5724
X11.2715Y-6.8724
T3
X0.6035Y-1.2459
X0.6035Y-1.3459
X0.6035Y-1.4459
X0.6035Y-1.5459
X0.6035Y-1.6459
X0.6035Y-1.7459
X0.6035Y-1.8459
X0.6035Y-1.9459
X0.6035Y-2.0459
X0.6035Y-2.1459
X0.6035Y-2.2459
X0.6035Y-2.3459
X0.6035Y-2.4459
X0.6035Y-2.5459
X0.6035Y-2.6459
X0.6035Y-2.7459
X0.6035Y-2.8459
X0.6035Y-2.9459
X0.6035Y-3.0459
X0.6035Y-3.1459
X0.6035Y-3.2459
X0.6035Y-3.3459
X0.6035Y-3.4459
X0.6035Y-3.5459
X0.6035Y-3.6459
X0.6035Y-3.7459
X0.6035Y-3.8459
X0.6035Y-3.9459
X0.6035Y-4.0459
X0.6035Y-4.1459
X0.6035Y-4.5924
X0.6035Y-4.6924
X0.6035Y-4.7924
X0.6035Y-4.8924
X0.6035Y-4.9924
X0.6035Y-5.0924
X0.6035Y-5.1924
X0.6035Y-5.2924
X0.6035Y-5.3924
X0.6035Y-5.4924
X0.6035Y-5.5924
X0.6035Y-5.6924
X0.6035Y-5.7924
X0.6035Y-5.8924
X0.6035Y-5.9924
X0.6035Y-6.0924
X0.6035Y-6.1924
X0.6035Y-6.2924
X0.6035Y-6.3924
X0.6035Y-6.4924
X0.6035Y-6.5924
X0.6035Y-6.6924
X0.6035Y-6.7924
X0.6035Y-6.8924
X0.6035Y-6.9924
X0.6035Y-7.0924
X0.6035Y-7.1924
X0.6035Y-7.2924
X0.6035Y-7.3924
X0.6035Y-7.4924
X0.7035Y-1.2459
X0.7035Y-1.3459
X0.7035Y-1.4459
X0.7035Y-1.5459
X0.7035Y-1.6459
X0.7035Y-1.7459
X0.7035Y-1.8459
X0.7035Y-1.9459
X0.7035Y-2.0459
X0.7035Y-2.1459
X0.7035Y-2.2459
X0.7035Y-2.3459
X0.7035Y-2.4459
X0.7035Y-2.5459
X0.7035Y-2.6459
X0.7035Y-2.7459
X0.7035Y-2.8459
X0.7035Y-2.9459
X0.7035Y-3.0459
X0.7035Y-3.1459
X0.7035Y-3.2459
X0.7035Y-3.3459
X0.7035Y-3.4459
X0.7035Y-3.5459
X0.7035Y-3.6459
X0.7035Y-3.7459
X0.7035Y-3.8459
X0.7035Y-3.9459
X0.7035Y-4.0459
X0.7035Y-4.1459
X0.7035Y-4.5924
X0.7035Y-4.6924
X0.7035Y-4.7924
X0.7035Y-4.8924
X0.7035Y-4.9924
X0.7035Y-5.0924
X0.7035Y-5.1924
X0.7035Y-5.2924
X0.7035Y-5.3924
X0.7035Y-5.4924
X0.7035Y-5.5924
X0.7035Y-5.6924
X0.7035Y-5.7924
X0.7035Y-5.8924
X0.7035Y-5.9924
X0.7035Y-6.0924
X0.7035Y-6.1924
X0.7035Y-6.2924
X0.7035Y-6.3924
X0.7035Y-6.4924
X0.7035Y-6.5924
X0.7035Y-6.6924
X0.7035Y-6.7924
X0.7035Y-6.8924
X0.7035Y-6.9924
X0.7035Y-7.0924
X0.7035Y-7.1924
X0.7035Y-7.2924
X0.7035Y-7.3924
X0.7035Y-7.4924
X0.8035Y-1.2459
X0.8035Y-1.3459
X0.8035Y-1.4459
X0.8035Y-1.5459
X0.8035Y-1.6459
X0.8035Y-1.7459
X0.8035Y-1.8459
X0.8035Y-1.9459
X0.8035Y-2.0459
X0.8035Y-2.1459
X0.8035Y-2.2459
X0.8035Y-2.3459
X0.8035Y-2.4459
X0.8035Y-2.5459
X0.8035Y-2.6459
X0.8035Y-2.7459
X0.8035Y-2.8459
X0.8035Y-2.9459
X0.8035Y-3.0459
X0.8035Y-3.1459
X0.8035Y-3.2459
X0.8035Y-3.3459
X0.8035Y-3.4459
X0.8035Y-3.5459
X0.8035Y-3.6459
X0.8035Y-3.7459
X0.8035Y-3.8459
X0.8035Y-3.9459
X0.8035Y-4.0459
X0.8035Y-4.1459
X0.8035Y-4.5924
X0.8035Y-4.6924
X0.8035Y-4.7924
X0.8035Y-4.8924
X0.8035Y-4.9924
X0.8035Y-5.0924
X0.8035Y-5.1924
X0.8035Y-5.2924
X0.8035Y-5.3924
X0.8035Y-5.4924
X0.8035Y-5.5924
X0.8035Y-5.6924
X0.8035Y-5.7924
X0.8035Y-5.8924
X0.8035Y-5.9924
X0.8035Y-6.0924
X0.8035Y-6.1924
X0.8035Y-6.2924
X0.8035Y-6.3924
X0.8035Y-6.4924
X0.8035Y-6.5924
X0.8035Y-6.6924
X0.8035Y-6.7924
X0.8035Y-6.8924
X0.8035Y-6.9924
X0.8035Y-7.0924
X0.8035Y-7.1924
X0.8035Y-7.2924
X0.8035Y-7.3924
X0.8035Y-7.4924
X0.9035Y-1.2459
X0.9035Y-1.3459
X0.9035Y-1.4459
X0.9035Y-1.5459
X0.9035Y-1.6459
X0.9035Y-1.7459
X0.9035Y-1.8459
X0.9035Y-1.9459
X0.9035Y-2.0459
X0.9035Y-2.1459
X0.9035Y-2.2459
X0.9035Y-2.3459
X0.9035Y-2.4459
X0.9035Y-2.5459
X0.9035Y-2.6459
X0.9035Y-2.7459
X0.9035Y-2.8459
X0.9035Y-2.9459
X0.9035Y-3.0459
X0.9035Y-3.1459
X0.9035Y-3.2459
X0.9035Y-3.3459
X0.9035Y-3.4459
X0.9035Y-3.5459
X0.9035Y-3.6459
X0.9035Y-3.7459
X0.9035Y-3.8459
X0.9035Y-3.9459
X0.9035Y-4.0459
X0.9035Y-4.1459
X0.9035Y-4.5924
X0.9035Y-4.6924
X0.9035Y-4.7924
X0.9035Y-4.8924
X0.9035Y-4.9924
X0.9035Y-5.0924
X0.9035Y-5.1924
X0.9035Y-5.2924
X0.9035Y-5.3924
X0.9035Y-5.4924
X0.9035Y-5.5924
X0.9035Y-5.6924
X0.9035Y-5.7924
X0.9035Y-5.8924
X0.9035Y-5.9924
X0.9035Y-6.0924
X0.9035Y-6.1924
X0.9035Y-6.2924
X0.9035Y-6.3924
X0.9035Y-6.4924
X0.9035Y-6.5924
X0.9035Y-6.6924
X0.9035Y-6.7924
X0.9035Y-6.8924
X0.9035Y-6.9924
X0.9035Y-7.0924
X0.9035Y-7.1924
X0.9035Y-7.2924
X0.9035Y-7.3924
X0.9035Y-7.4924
X1.0035Y-1.2459
X1.0035Y-1.3459
X1.0035Y-1.4459
X1.0035Y-1.5459
X1.0035Y-1.6459
X1.0035Y-1.7459
X1.0035Y-1.8459
X1.0035Y-1.9459
X1.0035Y-2.0459
X1.0035Y-2.1459
X1.0035Y-2.2459
X1.0035Y-2.3459
X1.0035Y-2.4459
X1.0035Y-2.5459
X1.0035Y-2.6459
X1.0035Y-2.7459
X1.0035Y-2.8459
X1.0035Y-2.9459
X1.0035Y-3.0459
X1.0035Y-3.1459
X1.0035Y-3.2459
X1.0035Y-3.3459
X1.0035Y-3.4459
X1.0035Y-3.5459
X1.0035Y-3.6459
X1.0035Y-3.7459
X1.0035Y-3.8459
X1.0035Y-3.9459
X1.0035Y-4.0459
X1.0035Y-4.1459
X1.0035Y-4.5924
X1.0035Y-4.6924
X1.0035Y-4.7924
X1.0035Y-4.8924
X1.0035Y-4.9924
X1.0035Y-5.0924
X1.0035Y-5.1924
X1.0035Y-5.2924
X1.0035Y-5.3924
X1.0035Y-5.4924
X1.0035Y-5.5924
X1.0035Y-5.6924
X1.0035Y-5.7924
X1.0035Y-5.8924
X1.0035Y-5.9924
X1.0035Y-6.0924
X1.0035Y-6.1924
X1.0035Y-6.2924
X1.0035Y-6.3924
X1.0035Y-6.4924
X1.0035Y-6.5924
X1.0035Y-6.6924
X1.0035Y-6.7924
X1.0035Y-6.8924
X1.0035Y-6.9924
X1.0035Y-7.0924
X1.0035Y-7.1924
X1.0035Y-7.2924
X1.0035Y-7.3924
X1.0035Y-7.4924
X1.1035Y-1.2459
X1.1035Y-1.3459
X1.1035Y-1.4459
X1.1035Y-1.5459
X1.1035Y-1.6459
X1.1035Y-1.7459
X1.1035Y-1.8459
X1.1035Y-1.9459
X1.1035Y-2.0459
X1.1035Y-2.1459
X1.1035Y-2.2459
X1.1035Y-2.3459
X1.1035Y-2.4459
X1.1035Y-2.5459
X1.1035Y-2.6459
X1.1035Y-2.7459
X1.1035Y-2.8459
X1.1035Y-2.9459
X1.1035Y-3.0459
X1.1035Y-3.1459
X1.1035Y-3.2459
X1.1035Y-3.3459
X1.1035Y-3.4459
X1.1035Y-3.5459
X1.1035Y-3.6459
X1.1035Y-3.7459
X1.1035Y-3.8459
X1.1035Y-3.9459
X1.1035Y-4.0459
X1.1035Y-4.1459
X1.1035Y-4.5924
X1.1035Y-4.6924
X1.1035Y-4.7924
X1.1035Y-4.8924
X1.1035Y-4.9924
X1.1035Y-5.0924
X1.1035Y-5.1924
X1.1035Y-5.2924
X1.1035Y-5.3924
X1.1035Y-5.4924
X1.1035Y-5.5924
X1.1035Y-5.6924
X1.1035Y-5.7924
X1.1035Y-5.8924
X1.1035Y-5.9924
X1.1035Y-6.0924
X1.1035Y-6.1924
X1.1035Y-6.2924
X1.1035Y-6.3924
X1.1035Y-6.4924
X1.1035Y-6.5924
X1.1035Y-6.6924
X1.1035Y-6.7924
X1.1035Y-6.8924
X1.1035Y-6.9924
X1.1035Y-7.0924
X1.1035Y-7.1924
X1.1035Y-7.2924
X1.1035Y-7.3924
X1.1035Y-7.4924
X1.2035Y-1.2459
X1.2035Y-1.3459
X1.2035Y-1.4459
X1.2035Y-1.5459
X1.2035Y-1.6459
X1.2035Y-1.7459
X1.2035Y-1.8459
X1.2035Y-1.9459
X1.2035Y-2.0459
X1.2035Y-2.1459
X1.2035Y-2.2459
X1.2035Y-2.3459
X1.2035Y-2.4459
X1.2035Y-2.5459
X1.2035Y-2.6459
X1.2035Y-2.7459
X1.2035Y-2.8459
X1.2035Y-2.9459
X1.2035Y-3.0459
X1.2035Y-3.1459
X1.2035Y-3.2459
X1.2035Y-3.3459
X1.2035Y-3.4459
X1.2035Y-3.5459
X1.2035Y-3.6459
X1.2035Y-3.7459
X1.2035Y-3.8459
X1.2035Y-3.9459
X1.2035Y-4.0459
X1.2035Y-4.1459
X1.2035Y-4.5924
X1.2035Y-4.6924
X1.2035Y-4.7924
X1.2035Y-4.8924
X1.2035Y-4.9924
X1.2035Y-5.0924
X1.2035Y-5.1924
X1.2035Y-5.2924
X1.2035Y-5.3924
X1.2035Y-5.4924
X1.2035Y-5.5924
X1.2035Y-5.6924
X1.2035Y-5.7924
X1.2035Y-5.8924
X1.2035Y-5.9924
X1.2035Y-6.0924
X1.2035Y-6.1924
X1.2035Y-6.2924
X1.2035Y-6.3924
X1.2035Y-6.4924
X1.2035Y-6.5924
X1.2035Y-6.6924
X1.2035Y-6.7924
X1.2035Y-6.8924
X1.2035Y-6.9924
X1.2035Y-7.0924
X1.2035Y-7.1924
X1.2035Y-7.2924
X1.2035Y-7.3924
X1.2035Y-7.4924
X1.3035Y-1.2459
X1.3035Y-1.3459
X1.3035Y-1.4459
X1.3035Y-1.5459
X1.3035Y-1.6459
X1.3035Y-1.7459
X1.3035Y-1.8459
X1.3035Y-1.9459
X1.3035Y-2.0459
X1.3035Y-2.1459
X1.3035Y-2.2459
X1.3035Y-2.3459
X1.3035Y-2.4459
X1.3035Y-2.5459
X1.3035Y-2.6459
X1.3035Y-2.7459
X1.3035Y-2.8459
X1.3035Y-2.9459
X1.3035Y-3.0459
X1.3035Y-3.1459
X1.3035Y-3.2459
X1.3035Y-3.3459
X1.3035Y-3.4459
X1.3035Y-3.5459
X1.3035Y-3.6459
X1.3035Y-3.7459
X1.3035Y-3.8459
X1.3035Y-3.9459
X1.3035Y-4.0459
X1.3035Y-4.1459
X1.3035Y-4.5924
X1.3035Y-4.6924
X1.3035Y-4.7924
X1.3035Y-4.8924
X1.3035Y-4.9924
X1.3035Y-5.0924
X1.3035Y-5.1924
X1.3035Y-5.2924
X1.3035Y-5.3924
X1.3035Y-5.4924
X1.3035Y-5.5924
X1.3035Y-5.6924
X1.3035Y-5.7924
X1.3035Y-5.8924
X1.3035Y-5.9924
X1.3035Y-6.0924
X1.3035Y-6.1924
X1.3035Y-6.2924
X1.3035Y-6.3924
X1.3035Y-6.4924
X1.3035Y-6.5924
X1.3035Y-6.6924
X1.3035Y-6.7924
X1.3035Y-6.8924
X1.3035Y-6.9924
X1.3035Y-7.0924
X1.3035Y-7.1924
X1.3035Y-7.2924
X1.3035Y-7.3924
X1.3035Y-7.4924
X1.4035Y-1.2459
X1.4035Y-1.3459
X1.4035Y-1.4459
X1.4035Y-1.5459
X1.4035Y-1.6459
X1.4035Y-1.7459
X1.4035Y-1.8459
X1.4035Y-1.9459
X1.4035Y-2.0459
X1.4035Y-2.1459
X1.4035Y-2.2459
X1.4035Y-2.3459
X1.4035Y-2.4459
X1.4035Y-2.5459
X1.4035Y-2.6459
X1.4035Y-2.7459
X1.4035Y-2.8459
X1.4035Y-2.9459
X1.4035Y-3.0459
X1.4035Y-3.1459
X1.4035Y-3.2459
X1.4035Y-3.3459
X1.4035Y-3.4459
X1.4035Y-3.5459
X1.4035Y-3.6459
X1.4035Y-3.7459
X1.4035Y-3.8459
X1.4035Y-3.9459
X1.4035Y-4.0459
X1.4035Y-4.1459
X1.4035Y-4.5924
X1.4035Y-4.6924
X1.4035Y-4.7924
X1.4035Y-4.8924
X1.4035Y-4.9924
X1.4035Y-5.0924
X1.4035Y-5.1924
X1.4035Y-5.2924
X1.4035Y-5.3924
X1.4035Y-5.4924
X1.4035Y-5.5924
X1.4035Y-5.6924
X1.4035Y-5.7924
X1.4035Y-5.8924
X1.4035Y-5.9924
X1.4035Y-6.0924
X1.4035Y-6.1924
X1.4035Y-6.2924
X1.4035Y-6.3924
X1.4035Y-6.4924
X1.4035Y-6.5924
X1.4035Y-6.6924
X1.4035Y-6.7924
X1.4035Y-6.8924
X1.4035Y-6.9924
X1.4035Y-7.0924
X1.4035Y-7.1924
X1.4035Y-7.2924
X1.4035Y-7.3924
X1.4035Y-7.4924
X1.5035Y-1.2459
X1.5035Y-1.3459
X1.5035Y-1.4459
X1.5035Y-1.5459
X1.5035Y-1.6459
X1.5035Y-1.7459
X1.5035Y-1.8459
X1.5035Y-1.9459
X1.5035Y-2.0459
X1.5035Y-2.1459
X1.5035Y-2.2459
X1.5035Y-2.3459
X1.5035Y-2.4459
X1.5035Y-2.5459
X1.5035Y-2.6459
X1.5035Y-2.7459
X1.5035Y-2.8459
X1.5035Y-2.9459
X1.5035Y-3.0459
X1.5035Y-3.1459
X1.5035Y-3.2459
X1.5035Y-3.3459
X1.5035Y-3.4459
X1.5035Y-3.5459
X1.5035Y-3.6459
X1.5035Y-3.7459
X1.5035Y-3.8459
X1.5035Y-3.9459
X1.5035Y-4.0459
X1.5035Y-4.1459
X1.5035Y-4.5924
X1.5035Y-4.6924
X1.5035Y-4.7924
X1.5035Y-4.8924
X1.5035Y-4.9924
X1.5035Y-5.0924
X1.5035Y-5.1924
X1.5035Y-5.2924
X1.5035Y-5.3924
X1.5035Y-5.4924
X1.5035Y-5.5924
X1.5035Y-5.6924
X1.5035Y-5.7924
X1.5035Y-5.8924
X1.5035Y-5.9924
X1.5035Y-6.0924
X1.5035Y-6.1924
X1.5035Y-6.2924
X1.5035Y-6.3924
X1.5035Y-6.4924
X1.5035Y-6.5924
X1.5035Y-6.6924
X1.5035Y-6.7924
X1.5035Y-6.8924
X1.5035Y-6.9924
X1.5035Y-7.0924
X1.5035Y-7.1924
X1.5035Y-7.2924
X1.5035Y-7.3924
X1.5035Y-7.4924
X1.6035Y-1.2459
X1.6035Y-1.3459
X1.6035Y-1.4459
X1.6035Y-1.5459
X1.6035Y-1.6459
X1.6035Y-1.7459
X1.6035Y-1.8459
X1.6035Y-1.9459
X1.6035Y-2.0459
X1.6035Y-2.1459
X1.6035Y-2.2459
X1.6035Y-2.3459
X1.6035Y-2.4459
X1.6035Y-2.5459
X1.6035Y-2.6459
X1.6035Y-2.7459
X1.6035Y-2.8459
X1.6035Y-2.9459
X1.6035Y-3.0459
X1.6035Y-3.1459
X1.6035Y-3.2459
X1.6035Y-3.3459
X1.6035Y-3.4459
X1.6035Y-3.5459
X1.6035Y-3.6459
X1.6035Y-3.7459
X1.6035Y-3.8459
X1.6035Y-3.9459
X1.6035Y-4.0459
X1.6035Y-4.1459
X1.6035Y-4.5924
X1.6035Y-4.6924
X1.6035Y-4.7924
X1.6035Y-4.8924
X1.6035Y-4.9924
X1.6035Y-5.0924
X1.6035Y-5.1924
X1.6035Y-5.2924
X1.6035Y-5.3924
X1.6035Y-5.4924
X1.6035Y-5.5924
X1.6035Y-5.6924
X1.6035Y-5.7924
X1.6035Y-5.8924
X1.6035Y-5.9924
X1.6035Y-6.0924
X1.6035Y-6.1924
X1.6035Y-6.2924
X1.6035Y-6.3924
X1.6035Y-6.4924
X1.6035Y-6.5924
X1.6035Y-6.6924
X1.6035Y-6.7924
X1.6035Y-6.8924
X1.6035Y-6.9924
X1.6035Y-7.0924
X1.6035Y-7.1924
X1.6035Y-7.2924
X1.6035Y-7.3924
X1.6035Y-7.4924
X1.7035Y-1.2459
X1.7035Y-1.3459
X1.7035Y-1.4459
X1.7035Y-1.5459
X1.7035Y-1.6459
X1.7035Y-1.7459
X1.7035Y-1.8459
X1.7035Y-1.9459
X1.7035Y-2.0459
X1.7035Y-2.1459
X1.7035Y-2.2459
X1.7035Y-2.3459
X1.7035Y-2.4459
X1.7035Y-2.5459
X1.7035Y-2.6459
X1.7035Y-2.7459
X1.7035Y-2.8459
X1.7035Y-2.9459
X1.7035Y-3.0459
X1.7035Y-3.1459
X1.7035Y-3.2459
X1.7035Y-3.3459
X1.7035Y-3.4459
X1.7035Y-3.5459
X1.7035Y-3.6459
X1.7035Y-3.7459
X1.7035Y-3.8459
X1.7035Y-3.9459
X1.7035Y-4.0459
X1.7035Y-4.1459
X1.7035Y-4.5924
X1.7035Y-4.6924
X1.7035Y-4.7924
X1.7035Y-4.8924
X1.7035Y-4.9924
X1.7035Y-5.0924
X1.7035Y-5.1924
X1.7035Y-5.2924
X1.7035Y-5.3924
X1.7035Y-5.4924
X1.7035Y-5.5924
X1.7035Y-5.6924
X1.7035Y-5.7924
X1.7035Y-5.8924
X1.7035Y-5.9924
X1.7035Y-6.0924
X1.7035Y-6.1924
X1.7035Y-6.2924
X1.7035Y-6.3924
X1.7035Y-6.4924
X1.7035Y-6.5924
X1.7035Y-6.6924
X1.7035Y-6.7924
X1.7035Y-6.8924
X1.7035Y-6.9924
X1.7035Y-7.0924
X1.7035Y-7.1924
X1.7035Y-7.2924
X1.7035Y-7.3924
X1.7035Y-7.4924
X2.0535Y-2.9359
X2.0535Y-3.0359
X2.0535Y-6.2824
X2.0535Y-6.3824
X2.1535Y-2.9359
X2.1535Y-3.0359
X2.1535Y-6.2824
X2.1535Y-6.3824
X2.2535Y-2.9359
X2.2535Y-3.0359
X2.2535Y-6.2824
X2.2535Y-6.3824
X2.5635Y-2.3559
X2.5635Y-3.0559
X2.5635Y-5.7024
X2.5635Y-6.4024
X2.6635Y-2.3559
X2.6635Y-3.0559
X2.6635Y-5.7024
X2.6635Y-6.4024
X2.7635Y-2.3559
X2.7635Y-3.0559
X2.7635Y-5.7024
X2.7635Y-6.4024
X2.8635Y-2.3559
X2.8635Y-3.0559
X2.8635Y-5.7024
X2.8635Y-6.4024
X2.9635Y-2.3559
X2.9635Y-3.0559
X2.9635Y-5.7024
X2.9635Y-6.4024
X3.0635Y-2.3559
X3.0635Y-3.0559
X3.0635Y-5.7024
X3.0635Y-6.4024
X3.1635Y-2.3559
X3.1635Y-3.0559
X3.1635Y-5.7024
X3.1635Y-6.4024
X3.2635Y-2.3559
X3.2635Y-3.0559
X3.2635Y-5.7024
X3.2635Y-6.4024
X3.3635Y-2.3559
X3.3635Y-3.0559
X3.3635Y-5.7024
X3.3635Y-6.4024
X3.4635Y-2.3559
X3.4635Y-3.0559
X3.4635Y-5.7024
X3.4635Y-6.4024
X3.5635Y-2.3559
X3.5635Y-3.0559
X3.5635Y-5.7024
X3.5635Y-6.4024
X3.6635Y-2.3559
X3.6635Y-3.0559
X3.6635Y-5.7024
X3.6635Y-6.4024
X3.7635Y-2.3559
X3.7635Y-3.0559
X3.7635Y-5.7024
X3.7635Y-6.4024
X3.8635Y-2.3559
X3.8635Y-3.0559
X3.8635Y-5.7024
X3.8635Y-6.4024
X4.0435Y-3.3559
X4.0435Y-3.4559
X4.0435Y-3.5559
X4.0435Y-6.7024
X4.0435Y-6.8024
X4.0435Y-6.9024
X4.2685Y-3.8459
X4.2685Y-7.1924
X4.316Y-3.8459
X4.316Y-7.1924
X4.361Y-3.8459
X4.361Y-7.1924
X4.4085Y-3.8459
X4.4085Y-7.1924
X4.7335Y-2.3359
X4.7335Y-2.4359
X4.7335Y-2.5359
X4.7335Y-5.6824
X4.7335Y-5.7824
X4.7335Y-5.8824
X5.2285Y-3.8459
X5.2285Y-7.1924
X5.2735Y-3.8459
X5.2735Y-7.1924
X5.3235Y-3.8459
X5.3235Y-7.1924
X5.3685Y-3.8459
X5.3685Y-7.1924
X6.3515Y-1.2459
X6.3515Y-1.3459
X6.3515Y-1.4459
X6.3515Y-1.5459
X6.3515Y-1.6459
X6.3515Y-1.7459
X6.3515Y-1.8459
X6.3515Y-1.9459
X6.3515Y-2.0459
X6.3515Y-2.1459
X6.3515Y-2.2459
X6.3515Y-2.3459
X6.3515Y-2.4459
X6.3515Y-2.5459
X6.3515Y-2.6459
X6.3515Y-2.7459
X6.3515Y-2.8459
X6.3515Y-2.9459
X6.3515Y-3.0459
X6.3515Y-3.1459
X6.3515Y-3.2459
X6.3515Y-3.3459
X6.3515Y-3.4459
X6.3515Y-3.5459
X6.3515Y-3.6459
X6.3515Y-3.7459
X6.3515Y-3.8459
X6.3515Y-3.9459
X6.3515Y-4.0459
X6.3515Y-4.1459
X6.3515Y-4.5924
X6.3515Y-4.6924
X6.3515Y-4.7924
X6.3515Y-4.8924
X6.3515Y-4.9924
X6.3515Y-5.0924
X6.3515Y-5.1924
X6.3515Y-5.2924
X6.3515Y-5.3924
X6.3515Y-5.4924
X6.3515Y-5.5924
X6.3515Y-5.6924
X6.3515Y-5.7924
X6.3515Y-5.8924
X6.3515Y-5.9924
X6.3515Y-6.0924
X6.3515Y-6.1924
X6.3515Y-6.2924
X6.3515Y-6.3924
X6.3515Y-6.4924
X6.3515Y-6.5924
X6.3515Y-6.6924
X6.3515Y-6.7924
X6.3515Y-6.8924
X6.3515Y-6.9924
X6.3515Y-7.0924
X6.3515Y-7.1924
X6.3515Y-7.2924
X6.3515Y-7.3924
X6.3515Y-7.4924
X6.4515Y-1.2459
X6.4515Y-1.3459
X6.4515Y-1.4459
X6.4515Y-1.5459
X6.4515Y-1.6459
X6.4515Y-1.7459
X6.4515Y-1.8459
X6.4515Y-1.9459
X6.4515Y-2.0459
X6.4515Y-2.1459
X6.4515Y-2.2459
X6.4515Y-2.3459
X6.4515Y-2.4459
X6.4515Y-2.5459
X6.4515Y-2.6459
X6.4515Y-2.7459
X6.4515Y-2.8459
X6.4515Y-2.9459
X6.4515Y-3.0459
X6.4515Y-3.1459
X6.4515Y-3.2459
X6.4515Y-3.3459
X6.4515Y-3.4459
X6.4515Y-3.5459
X6.4515Y-3.6459
X6.4515Y-3.7459
X6.4515Y-3.8459
X6.4515Y-3.9459
X6.4515Y-4.0459
X6.4515Y-4.1459
X6.4515Y-4.5924
X6.4515Y-4.6924
X6.4515Y-4.7924
X6.4515Y-4.8924
X6.4515Y-4.9924
X6.4515Y-5.0924
X6.4515Y-5.1924
X6.4515Y-5.2924
X6.4515Y-5.3924
X6.4515Y-5.4924
X6.4515Y-5.5924
X6.4515Y-5.6924
X6.4515Y-5.7924
X6.4515Y-5.8924
X6.4515Y-5.9924
X6.4515Y-6.0924
X6.4515Y-6.1924
X6.4515Y-6.2924
X6.4515Y-6.3924
X6.4515Y-6.4924
X6.4515Y-6.5924
X6.4515Y-6.6924
X6.4515Y-6.7924
X6.4515Y-6.8924
X6.4515Y-6.9924
X6.4515Y-7.0924
X6.4515Y-7.1924
X6.4515Y-7.2924
X6.4515Y-7.3924
X6.4515Y-7.4924
X6.5515Y-1.2459
X6.5515Y-1.3459
X6.5515Y-1.4459
X6.5515Y-1.5459
X6.5515Y-1.6459
X6.5515Y-1.7459
X6.5515Y-1.8459
X6.5515Y-1.9459
X6.5515Y-2.0459
X6.5515Y-2.1459
X6.5515Y-2.2459
X6.5515Y-2.3459
X6.5515Y-2.4459
X6.5515Y-2.5459
X6.5515Y-2.6459
X6.5515Y-2.7459
X6.5515Y-2.8459
X6.5515Y-2.9459
X6.5515Y-3.0459
X6.5515Y-3.1459
X6.5515Y-3.2459
X6.5515Y-3.3459
X6.5515Y-3.4459
X6.5515Y-3.5459
X6.5515Y-3.6459
X6.5515Y-3.7459
X6.5515Y-3.8459
X6.5515Y-3.9459
X6.5515Y-4.0459
X6.5515Y-4.1459
X6.5515Y-4.5924
X6.5515Y-4.6924
X6.5515Y-4.7924
X6.5515Y-4.8924
X6.5515Y-4.9924
X6.5515Y-5.0924
X6.5515Y-5.1924
X6.5515Y-5.2924
X6.5515Y-5.3924
X6.5515Y-5.4924
X6.5515Y-5.5924
X6.5515Y-5.6924
X6.5515Y-5.7924
X6.5515Y-5.8924
X6.5515Y-5.9924
X6.5515Y-6.0924
X6.5515Y-6.1924
X6.5515Y-6.2924
X6.5515Y-6.3924
X6.5515Y-6.4924
X6.5515Y-6.5924
X6.5515Y-6.6924
X6.5515Y-6.7924
X6.5515Y-6.8924
X6.5515Y-6.9924
X6.5515Y-7.0924
X6.5515Y-7.1924
X6.5515Y-7.2924
X6.5515Y-7.3924
X6.5515Y-7.4924
X6.6515Y-1.2459
X6.6515Y-1.3459
X6.6515Y-1.4459
X6.6515Y-1.5459
X6.6515Y-1.6459
X6.6515Y-1.7459
X6.6515Y-1.8459
X6.6515Y-1.9459
X6.6515Y-2.0459
X6.6515Y-2.1459
X6.6515Y-2.2459
X6.6515Y-2.3459
X6.6515Y-2.4459
X6.6515Y-2.5459
X6.6515Y-2.6459
X6.6515Y-2.7459
X6.6515Y-2.8459
X6.6515Y-2.9459
X6.6515Y-3.0459
X6.6515Y-3.1459
X6.6515Y-3.2459
X6.6515Y-3.3459
X6.6515Y-3.4459
X6.6515Y-3.5459
X6.6515Y-3.6459
X6.6515Y-3.7459
X6.6515Y-3.8459
X6.6515Y-3.9459
X6.6515Y-4.0459
X6.6515Y-4.1459
X6.6515Y-4.5924
X6.6515Y-4.6924
X6.6515Y-4.7924
X6.6515Y-4.8924
X6.6515Y-4.9924
X6.6515Y-5.0924
X6.6515Y-5.1924
X6.6515Y-5.2924
X6.6515Y-5.3924
X6.6515Y-5.4924
X6.6515Y-5.5924
X6.6515Y-5.6924
X6.6515Y-5.7924
X6.6515Y-5.8924
X6.6515Y-5.9924
X6.6515Y-6.0924
X6.6515Y-6.1924
X6.6515Y-6.2924
X6.6515Y-6.3924
X6.6515Y-6.4924
X6.6515Y-6.5924
X6.6515Y-6.6924
X6.6515Y-6.7924
X6.6515Y-6.8924
X6.6515Y-6.9924
X6.6515Y-7.0924
X6.6515Y-7.1924
X6.6515Y-7.2924
X6.6515Y-7.3924
X6.6515Y-7.4924
X6.7515Y-1.2459
X6.7515Y-1.3459
X6.7515Y-1.4459
X6.7515Y-1.5459
X6.7515Y-1.6459
X6.7515Y-1.7459
X6.7515Y-1.8459
X6.7515Y-1.9459
X6.7515Y-2.0459
X6.7515Y-2.1459
X6.7515Y-2.2459
X6.7515Y-2.3459
X6.7515Y-2.4459
X6.7515Y-2.5459
X6.7515Y-2.6459
X6.7515Y-2.7459
X6.7515Y-2.8459
X6.7515Y-2.9459
X6.7515Y-3.0459
X6.7515Y-3.1459
X6.7515Y-3.2459
X6.7515Y-3.3459
X6.7515Y-3.4459
X6.7515Y-3.5459
X6.7515Y-3.6459
X6.7515Y-3.7459
X6.7515Y-3.8459
X6.7515Y-3.9459
X6.7515Y-4.0459
X6.7515Y-4.1459
X6.7515Y-4.5924
X6.7515Y-4.6924
X6.7515Y-4.7924
X6.7515Y-4.8924
X6.7515Y-4.9924
X6.7515Y-5.0924
X6.7515Y-5.1924
X6.7515Y-5.2924
X6.7515Y-5.3924
X6.7515Y-5.4924
X6.7515Y-5.5924
X6.7515Y-5.6924
X6.7515Y-5.7924
X6.7515Y-5.8924
X6.7515Y-5.9924
X6.7515Y-6.0924
X6.7515Y-6.1924
X6.7515Y-6.2924
X6.7515Y-6.3924
X6.7515Y-6.4924
X6.7515Y-6.5924
X6.7515Y-6.6924
X6.7515Y-6.7924
X6.7515Y-6.8924
X6.7515Y-6.9924
X6.7515Y-7.0924
X6.7515Y-7.1924
X6.7515Y-7.2924
X6.7515Y-7.3924
X6.7515Y-7.4924
X6.8515Y-1.2459
X6.8515Y-1.3459
X6.8515Y-1.4459
X6.8515Y-1.5459
X6.8515Y-1.6459
X6.8515Y-1.7459
X6.8515Y-1.8459
X6.8515Y-1.9459
X6.8515Y-2.0459
X6.8515Y-2.1459
X6.8515Y-2.2459
X6.8515Y-2.3459
X6.8515Y-2.4459
X6.8515Y-2.5459
X6.8515Y-2.6459
X6.8515Y-2.7459
X6.8515Y-2.8459
X6.8515Y-2.9459
X6.8515Y-3.0459
X6.8515Y-3.1459
X6.8515Y-3.2459
X6.8515Y-3.3459
X6.8515Y-3.4459
X6.8515Y-3.5459
X6.8515Y-3.6459
X6.8515Y-3.7459
X6.8515Y-3.8459
X6.8515Y-3.9459
X6.8515Y-4.0459
X6.8515Y-4.1459
X6.8515Y-4.5924
X6.8515Y-4.6924
X6.8515Y-4.7924
X6.8515Y-4.8924
X6.8515Y-4.9924
X6.8515Y-5.0924
X6.8515Y-5.1924
X6.8515Y-5.2924
X6.8515Y-5.3924
X6.8515Y-5.4924
X6.8515Y-5.5924
X6.8515Y-5.6924
X6.8515Y-5.7924
X6.8515Y-5.8924
X6.8515Y-5.9924
X6.8515Y-6.0924
X6.8515Y-6.1924
X6.8515Y-6.2924
X6.8515Y-6.3924
X6.8515Y-6.4924
X6.8515Y-6.5924
X6.8515Y-6.6924
X6.8515Y-6.7924
X6.8515Y-6.8924
X6.8515Y-6.9924
X6.8515Y-7.0924
X6.8515Y-7.1924
X6.8515Y-7.2924
X6.8515Y-7.3924
X6.8515Y-7.4924
X6.9515Y-1.2459
X6.9515Y-1.3459
X6.9515Y-1.4459
X6.9515Y-1.5459
X6.9515Y-1.6459
X6.9515Y-1.7459
X6.9515Y-1.8459
X6.9515Y-1.9459
X6.9515Y-2.0459
X6.9515Y-2.1459
X6.9515Y-2.2459
X6.9515Y-2.3459
X6.9515Y-2.4459
X6.9515Y-2.5459
X6.9515Y-2.6459
X6.9515Y-2.7459
X6.9515Y-2.8459
X6.9515Y-2.9459
X6.9515Y-3.0459
X6.9515Y-3.1459
X6.9515Y-3.2459
X6.9515Y-3.3459
X6.9515Y-3.4459
X6.9515Y-3.5459
X6.9515Y-3.6459
X6.9515Y-3.7459
X6.9515Y-3.8459
X6.9515Y-3.9459
X6.9515Y-4.0459
X6.9515Y-4.1459
X6.9515Y-4.5924
X6.9515Y-4.6924
X6.9515Y-4.7924
X6.9515Y-4.8924
X6.9515Y-4.9924
X6.9515Y-5.0924
X6.9515Y-5.1924
X6.9515Y-5.2924
X6.9515Y-5.3924
X6.9515Y-5.4924
X6.9515Y-5.5924
X6.9515Y-5.6924
X6.9515Y-5.7924
X6.9515Y-5.8924
X6.9515Y-5.9924
X6.9515Y-6.0924
X6.9515Y-6.1924
X6.9515Y-6.2924
X6.9515Y-6.3924
X6.9515Y-6.4924
X6.9515Y-6.5924
X6.9515Y-6.6924
X6.9515Y-6.7924
X6.9515Y-6.8924
X6.9515Y-6.9924
X6.9515Y-7.0924
X6.9515Y-7.1924
X6.9515Y-7.2924
X6.9515Y-7.3924
X6.9515Y-7.4924
X7.0515Y-1.2459
X7.0515Y-1.3459
X7.0515Y-1.4459
X7.0515Y-1.5459
X7.0515Y-1.6459
X7.0515Y-1.7459
X7.0515Y-1.8459
X7.0515Y-1.9459
X7.0515Y-2.0459
X7.0515Y-2.1459
X7.0515Y-2.2459
X7.0515Y-2.3459
X7.0515Y-2.4459
X7.0515Y-2.5459
X7.0515Y-2.6459
X7.0515Y-2.7459
X7.0515Y-2.8459
X7.0515Y-2.9459
X7.0515Y-3.0459
X7.0515Y-3.1459
X7.0515Y-3.2459
X7.0515Y-3.3459
X7.0515Y-3.4459
X7.0515Y-3.5459
X7.0515Y-3.6459
X7.0515Y-3.7459
X7.0515Y-3.8459
X7.0515Y-3.9459
X7.0515Y-4.0459
X7.0515Y-4.1459
X7.0515Y-4.5924
X7.0515Y-4.6924
X7.0515Y-4.7924
X7.0515Y-4.8924
X7.0515Y-4.9924
X7.0515Y-5.0924
X7.0515Y-5.1924
X7.0515Y-5.2924
X7.0515Y-5.3924
X7.0515Y-5.4924
X7.0515Y-5.5924
X7.0515Y-5.6924
X7.0515Y-5.7924
X7.0515Y-5.8924
X7.0515Y-5.9924
X7.0515Y-6.0924
X7.0515Y-6.1924
X7.0515Y-6.2924
X7.0515Y-6.3924
X7.0515Y-6.4924
X7.0515Y-6.5924
X7.0515Y-6.6924
X7.0515Y-6.7924
X7.0515Y-6.8924
X7.0515Y-6.9924
X7.0515Y-7.0924
X7.0515Y-7.1924
X7.0515Y-7.2924
X7.0515Y-7.3924
X7.0515Y-7.4924
X7.1515Y-1.2459
X7.1515Y-1.3459
X7.1515Y-1.4459
X7.1515Y-1.5459
X7.1515Y-1.6459
X7.1515Y-1.7459
X7.1515Y-1.8459
X7.1515Y-1.9459
X7.1515Y-2.0459
X7.1515Y-2.1459
X7.1515Y-2.2459
X7.1515Y-2.3459
X7.1515Y-2.4459
X7.1515Y-2.5459
X7.1515Y-2.6459
X7.1515Y-2.7459
X7.1515Y-2.8459
X7.1515Y-2.9459
X7.1515Y-3.0459
X7.1515Y-3.1459
X7.1515Y-3.2459
X7.1515Y-3.3459
X7.1515Y-3.4459
X7.1515Y-3.5459
X7.1515Y-3.6459
X7.1515Y-3.7459
X7.1515Y-3.8459
X7.1515Y-3.9459
X7.1515Y-4.0459
X7.1515Y-4.1459
X7.1515Y-4.5924
X7.1515Y-4.6924
X7.1515Y-4.7924
X7.1515Y-4.8924
X7.1515Y-4.9924
X7.1515Y-5.0924
X7.1515Y-5.1924
X7.1515Y-5.2924
X7.1515Y-5.3924
X7.1515Y-5.4924
X7.1515Y-5.5924
X7.1515Y-5.6924
X7.1515Y-5.7924
X7.1515Y-5.8924
X7.1515Y-5.9924
X7.1515Y-6.0924
X7.1515Y-6.1924
X7.1515Y-6.2924
X7.1515Y-6.3924
X7.1515Y-6.4924
X7.1515Y-6.5924
X7.1515Y-6.6924
X7.1515Y-6.7924
X7.1515Y-6.8924
X7.1515Y-6.9924
X7.1515Y-7.0924
X7.1515Y-7.1924
X7.1515Y-7.2924
X7.1515Y-7.3924
X7.1515Y-7.4924
X7.2515Y-1.2459
X7.2515Y-1.3459
X7.2515Y-1.4459
X7.2515Y-1.5459
X7.2515Y-1.6459
X7.2515Y-1.7459
X7.2515Y-1.8459
X7.2515Y-1.9459
X7.2515Y-2.0459
X7.2515Y-2.1459
X7.2515Y-2.2459
X7.2515Y-2.3459
X7.2515Y-2.4459
X7.2515Y-2.5459
X7.2515Y-2.6459
X7.2515Y-2.7459
X7.2515Y-2.8459
X7.2515Y-2.9459
X7.2515Y-3.0459
X7.2515Y-3.1459
X7.2515Y-3.2459
X7.2515Y-3.3459
X7.2515Y-3.4459
X7.2515Y-3.5459
X7.2515Y-3.6459
X7.2515Y-3.7459
X7.2515Y-3.8459
X7.2515Y-3.9459
X7.2515Y-4.0459
X7.2515Y-4.1459
X7.2515Y-4.5924
X7.2515Y-4.6924
X7.2515Y-4.7924
X7.2515Y-4.8924
X7.2515Y-4.9924
X7.2515Y-5.0924
X7.2515Y-5.1924
X7.2515Y-5.2924
X7.2515Y-5.3924
X7.2515Y-5.4924
X7.2515Y-5.5924
X7.2515Y-5.6924
X7.2515Y-5.7924
X7.2515Y-5.8924
X7.2515Y-5.9924
X7.2515Y-6.0924
X7.2515Y-6.1924
X7.2515Y-6.2924
X7.2515Y-6.3924
X7.2515Y-6.4924
X7.2515Y-6.5924
X7.2515Y-6.6924
X7.2515Y-6.7924
X7.2515Y-6.8924
X7.2515Y-6.9924
X7.2515Y-7.0924
X7.2515Y-7.1924
X7.2515Y-7.2924
X7.2515Y-7.3924
X7.2515Y-7.4924
X7.3515Y-1.2459
X7.3515Y-1.3459
X7.3515Y-1.4459
X7.3515Y-1.5459
X7.3515Y-1.6459
X7.3515Y-1.7459
X7.3515Y-1.8459
X7.3515Y-1.9459
X7.3515Y-2.0459
X7.3515Y-2.1459
X7.3515Y-2.2459
X7.3515Y-2.3459
X7.3515Y-2.4459
X7.3515Y-2.5459
X7.3515Y-2.6459
X7.3515Y-2.7459
X7.3515Y-2.8459
X7.3515Y-2.9459
X7.3515Y-3.0459
X7.3515Y-3.1459
X7.3515Y-3.2459
X7.3515Y-3.3459
X7.3515Y-3.4459
X7.3515Y-3.5459
X7.3515Y-3.6459
X7.3515Y-3.7459
X7.3515Y-3.8459
X7.3515Y-3.9459
X7.3515Y-4.0459
X7.3515Y-4.1459
X7.3515Y-4.5924
X7.3515Y-4.6924
X7.3515Y-4.7924
X7.3515Y-4.8924
X7.3515Y-4.9924
X7.3515Y-5.0924
X7.3515Y-5.1924
X7.3515Y-5.2924
X7.3515Y-5.3924
X7.3515Y-5.4924
X7.3515Y-5.5924
X7.3515Y-5.6924
X7.3515Y-5.7924
X7.3515Y-5.8924
X7.3515Y-5.9924
X7.3515Y-6.0924
X7.3515Y-6.1924
X7.3515Y-6.2924
X7.3515Y-6.3924
X7.3515Y-6.4924
X7.3515Y-6.5924
X7.3515Y-6.6924
X7.3515Y-6.7924
X7.3515Y-6.8924
X7.3515Y-6.9924
X7.3515Y-7.0924
X7.3515Y-7.1924
X7.3515Y-7.2924
X7.3515Y-7.3924
X7.3515Y-7.4924
X7.4515Y-1.2459
X7.4515Y-1.3459
X7.4515Y-1.4459
X7.4515Y-1.5459
X7.4515Y-1.6459
X7.4515Y-1.7459
X7.4515Y-1.8459
X7.4515Y-1.9459
X7.4515Y-2.0459
X7.4515Y-2.1459
X7.4515Y-2.2459
X7.4515Y-2.3459
X7.4515Y-2.4459
X7.4515Y-2.5459
X7.4515Y-2.6459
X7.4515Y-2.7459
X7.4515Y-2.8459
X7.4515Y-2.9459
X7.4515Y-3.0459
X7.4515Y-3.1459
X7.4515Y-3.2459
X7.4515Y-3.3459
X7.4515Y-3.4459
X7.4515Y-3.5459
X7.4515Y-3.6459
X7.4515Y-3.7459
X7.4515Y-3.8459
X7.4515Y-3.9459
X7.4515Y-4.0459
X7.4515Y-4.1459
X7.4515Y-4.5924
X7.4515Y-4.6924
X7.4515Y-4.7924
X7.4515Y-4.8924
X7.4515Y-4.9924
X7.4515Y-5.0924
X7.4515Y-5.1924
X7.4515Y-5.2924
X7.4515Y-5.3924
X7.4515Y-5.4924
X7.4515Y-5.5924
X7.4515Y-5.6924
X7.4515Y-5.7924
X7.4515Y-5.8924
X7.4515Y-5.9924
X7.4515Y-6.0924
X7.4515Y-6.1924
X7.4515Y-6.2924
X7.4515Y-6.3924
X7.4515Y-6.4924
X7.4515Y-6.5924
X7.4515Y-6.6924
X7.4515Y-6.7924
X7.4515Y-6.8924
X7.4515Y-6.9924
X7.4515Y-7.0924
X7.4515Y-7.1924
X7.4515Y-7.2924
X7.4515Y-7.3924
X7.4515Y-7.4924
X7.8015Y-2.9359
X7.8015Y-3.0359
X7.8015Y-6.2824
X7.8015Y-6.3824
X7.9015Y-2.9359
X7.9015Y-3.0359
X7.9015Y-6.2824
X7.9015Y-6.3824
X8.0015Y-2.9359
X8.0015Y-3.0359
X8.0015Y-6.2824
X8.0015Y-6.3824
X8.3115Y-2.3559
X8.3115Y-3.0559
X8.3115Y-5.7024
X8.3115Y-6.4024
X8.4115Y-2.3559
X8.4115Y-3.0559
X8.4115Y-5.7024
X8.4115Y-6.4024
X8.5115Y-2.3559
X8.5115Y-3.0559
X8.5115Y-5.7024
X8.5115Y-6.4024
X8.6115Y-2.3559
X8.6115Y-3.0559
X8.6115Y-5.7024
X8.6115Y-6.4024
X8.7115Y-2.3559
X8.7115Y-3.0559
X8.7115Y-5.7024
X8.7115Y-6.4024
X8.8115Y-2.3559
X8.8115Y-3.0559
X8.8115Y-5.7024
X8.8115Y-6.4024
X8.9115Y-2.3559
X8.9115Y-3.0559
X8.9115Y-5.7024
X8.9115Y-6.4024
X9.0115Y-2.3559
X9.0115Y-3.0559
X9.0115Y-5.7024
X9.0115Y-6.4024
X9.1115Y-2.3559
X9.1115Y-3.0559
X9.1115Y-5.7024
X9.1115Y-6.4024
X9.2115Y-2.3559
X9.2115Y-3.0559
X9.2115Y-5.7024
X9.2115Y-6.4024
X9.3115Y-2.3559
X9.3115Y-3.0559
X9.3115Y-5.7024
X9.3115Y-6.4024
X9.4115Y-2.3559
X9.4115Y-3.0559
X9.4115Y-5.7024
X9.4115Y-6.4024
X9.5115Y-2.3559
X9.5115Y-3.0559
X9.5115Y-5.7024
X9.5115Y-6.4024
X9.6115Y-2.3559
X9.6115Y-3.0559
X9.6115Y-5.7024
X9.6115Y-6.4024
X9.7915Y-3.3559
X9.7915Y-3.4559
X9.7915Y-3.5559
X9.7915Y-6.7024
X9.7915Y-6.8024
X9.7915Y-6.9024
X10.0165Y-3.8459
X10.0165Y-7.1924
X10.064Y-3.8459
X10.064Y-7.1924
X10.109Y-3.8459
X10.109Y-7.1924
X10.1565Y-3.8459
X10.1565Y-7.1924
X10.4815Y-2.3359
X10.4815Y-2.4359
X10.4815Y-2.5359
X10.4815Y-5.6824
X10.4815Y-5.7824
X10.4815Y-5.8824
X10.9765Y-3.8459
X10.9765Y-7.1924
X11.0215Y-3.8459
X11.0215Y-7.1924
X11.0715Y-3.8459
X11.0715Y-7.1924
X11.1165Y-3.8459
X11.1165Y-7.1924
T4
X5.3235Y-2.4259
X5.3235Y-5.7724
X5.4235Y-2.4259
X5.4235Y-5.7724
X5.5235Y-2.4259
X5.5235Y-5.7724
X11.0715Y-2.4259
X11.0715Y-5.7724
X11.1715Y-2.4259
X11.1715Y-5.7724
X11.2715Y-2.4259
X11.2715Y-5.7724
T5
X2.0435Y-3.8559
X2.0435Y-7.2024
X2.3735Y-1.8359
X2.3735Y-5.1824
X3.7235Y-1.6259
X3.7235Y-1.9259
X3.7235Y-4.9724
X3.7235Y-5.2724
X3.9235Y-1.6259
X3.9235Y-1.9259
X3.9235Y-4.9724
X3.9235Y-5.2724
X4.1835Y-1.6359
X4.1835Y-1.9359
X4.1835Y-4.9824
X4.1835Y-5.2824
X4.2435Y-2.6259
X4.2435Y-5.9724
X4.3835Y-1.6359
X4.3835Y-1.9359
X4.3835Y-4.9824
X4.3835Y-5.2824
X7.7915Y-3.8559
X7.7915Y-7.2024
X8.1215Y-1.8359
X8.1215Y-5.1824
X9.4715Y-1.6259
X9.4715Y-1.9259
X9.4715Y-4.9724
X9.4715Y-5.2724
X9.6715Y-1.6259
X9.6715Y-1.9259
X9.6715Y-4.9724
X9.6715Y-5.2724
X9.9315Y-1.6359
X9.9315Y-1.9359
X9.9315Y-4.9824
X9.9315Y-5.2824
X9.9915Y-2.6259
X9.9915Y-5.9724
X10.1315Y-1.6359
X10.1315Y-1.9359
X10.1315Y-4.9824
X10.1315Y-5.2824
T6
X5.3948Y-1.6759
X5.3948Y-5.0224
X5.5522Y-1.6759
X5.5522Y-5.0224
X11.1428Y-1.6759
X11.1428Y-5.0224
X11.3002Y-1.6759
X11.3002Y-5.0224
T7
X0.4135Y-1.2759
X0.4135Y-4.1159
X0.4135Y-4.6224
X0.4135Y-7.4624
X5.6635Y-1.2759
X5.6635Y-4.1159
X5.6635Y-4.6224
X5.6635Y-7.4624
X6.1615Y-1.2759
X6.1615Y-4.1159
X6.1615Y-4.6224
X6.1615Y-7.4624
X11.4115Y-1.2759
X11.4115Y-4.1159
X11.4115Y-4.6224
X11.4115Y-7.4624
T3
X4.4085Y-3.8459G85X4.2685Y-3.8459
G05
X4.4085Y-7.1924G85X4.2685Y-7.1924
G05
X5.3685Y-3.8459G85X5.2285Y-3.8459
G05
X5.3685Y-7.1924G85X5.2285Y-7.1924
G05
X10.1565Y-3.8459G85X10.0165Y-3.8459
G05
X10.1565Y-7.1924G85X10.0165Y-7.1924
G05
X11.1165Y-3.8459G85X10.9765Y-3.8459
G05
X11.1165Y-7.1924G85X10.9765Y-7.1924
G05
T0
M30
