M48
;DRILL file {Pcbnew (2013-mar-13)-testing} date Tue 17 Sep 2013 21:55:04 ART
;FORMAT={-:-/ absolute / inch / decimal}
FMAT,2
INCH,TZ
T1C0.032
T2C0.036
T3C0.040
T4C0.044
T5C0.050
T6C0.080
T7C0.120
%
G90
G05
M72
T1
X3.21Y-1.93
X3.21Y-3.95
X3.21Y-5.2765
X3.21Y-7.2965
X3.34Y-1.73
X3.34Y-2.97
X3.34Y-5.0765
X3.34Y-6.3165
X3.51Y-1.93
X3.51Y-5.2765
X3.54Y-3.49
X3.54Y-4.21
X3.54Y-6.8365
X3.54Y-7.5565
X3.69Y-2.51
X3.69Y-3.74
X3.69Y-5.8565
X3.69Y-7.0865
X3.77Y-1.73
X3.77Y-3.95
X3.77Y-5.0765
X3.77Y-7.2965
X3.85Y-2.86
X3.85Y-3.16
X3.85Y-6.2065
X3.85Y-6.5065
X3.95Y-2.86
X3.95Y-3.16
X3.95Y-6.2065
X3.95Y-6.5065
X4.Y-3.74
X4.Y-7.0865
X4.05Y-2.39
X4.05Y-2.86
X4.05Y-3.16
X4.05Y-5.7365
X4.05Y-6.2065
X4.05Y-6.5065
X4.07Y-3.95
X4.07Y-4.11
X4.07Y-4.21
X4.07Y-7.2965
X4.07Y-7.4565
X4.07Y-7.5565
X4.15Y-2.11
X4.15Y-2.39
X4.15Y-2.86
X4.15Y-3.16
X4.15Y-5.4565
X4.15Y-5.7365
X4.15Y-6.2065
X4.15Y-6.5065
X4.25Y-2.86
X4.25Y-3.16
X4.25Y-6.2065
X4.25Y-6.5065
X4.3Y-3.74
X4.3Y-4.11
X4.3Y-4.21
X4.3Y-7.0865
X4.3Y-7.4565
X4.3Y-7.5565
X4.35Y-2.11
X4.35Y-2.39
X4.35Y-2.86
X4.35Y-3.16
X4.35Y-5.4565
X4.35Y-5.7365
X4.35Y-6.2065
X4.35Y-6.5065
X4.45Y-2.39
X4.45Y-2.86
X4.45Y-3.16
X4.45Y-3.7
X4.45Y-3.8
X4.45Y-5.7365
X4.45Y-6.2065
X4.45Y-6.5065
X4.45Y-7.0465
X4.45Y-7.1465
X4.53Y-4.11
X4.53Y-4.21
X4.53Y-7.4565
X4.53Y-7.5565
X4.55Y-2.86
X4.55Y-3.16
X4.55Y-6.2065
X4.55Y-6.5065
X4.65Y-2.15
X4.65Y-2.25
X4.65Y-2.41
X4.65Y-2.86
X4.65Y-3.16
X4.65Y-3.62
X4.65Y-3.92
X4.65Y-5.4965
X4.65Y-5.5965
X4.65Y-5.7565
X4.65Y-6.2065
X4.65Y-6.5065
X4.65Y-6.9665
X4.65Y-7.2665
X4.75Y-2.86
X4.75Y-3.16
X4.75Y-6.2065
X4.75Y-6.5065
X4.76Y-4.11
X4.76Y-4.21
X4.76Y-7.4565
X4.76Y-7.5565
X4.78Y-1.93
X4.78Y-5.2765
X4.8Y-3.62
X4.8Y-3.92
X4.8Y-6.9665
X4.8Y-7.2665
X4.85Y-2.86
X4.85Y-3.16
X4.85Y-6.2065
X4.85Y-6.5065
X4.95Y-2.86
X4.95Y-3.16
X4.95Y-3.62
X4.95Y-3.92
X4.95Y-6.2065
X4.95Y-6.5065
X4.95Y-6.9665
X4.95Y-7.2665
X5.05Y-2.86
X5.05Y-3.16
X5.05Y-6.2065
X5.05Y-6.5065
X5.13Y-3.89
X5.13Y-4.19
X5.13Y-7.2365
X5.13Y-7.5365
X5.15Y-2.86
X5.15Y-3.16
X5.15Y-6.2065
X5.15Y-6.5065
X5.32Y-1.73
X5.32Y-5.0765
X5.37Y-2.66
X5.37Y-6.0065
X5.57Y-1.73
X5.57Y-5.0765
X5.67Y-1.73
X5.67Y-2.41
X5.67Y-2.66
X5.67Y-5.0765
X5.67Y-5.7565
X5.67Y-6.0065
X5.71Y-3.53
X5.71Y-3.83
X5.71Y-6.8765
X5.71Y-7.1765
X5.81Y-3.53
X5.81Y-3.83
X5.81Y-6.8765
X5.81Y-7.1765
X5.88Y-2.07
X5.88Y-2.37
X5.88Y-5.4165
X5.88Y-5.7165
X5.91Y-1.72
X5.91Y-1.82
X5.91Y-3.53
X5.91Y-3.83
X5.91Y-5.0665
X5.91Y-5.1665
X5.91Y-6.8765
X5.91Y-7.1765
X6.01Y-3.53
X6.01Y-3.83
X6.01Y-6.8765
X6.01Y-7.1765
X6.1Y-1.55
X6.1Y-2.33
X6.1Y-4.8965
X6.1Y-5.6765
X6.11Y-3.53
X6.11Y-3.83
X6.11Y-6.8765
X6.11Y-7.1765
X6.15Y-2.97
X6.15Y-6.3165
X6.21Y-3.53
X6.21Y-3.83
X6.21Y-6.8765
X6.21Y-7.1765
X6.28Y-1.7
X6.28Y-5.0465
X6.29Y-2.83
X6.29Y-6.1765
X6.31Y-3.53
X6.31Y-3.83
X6.31Y-6.8765
X6.31Y-7.1765
X6.38Y-1.7
X6.38Y-5.0465
X6.39Y-2.83
X6.39Y-6.1765
X6.41Y-3.53
X6.41Y-3.83
X6.41Y-6.8765
X6.41Y-7.1765
X6.57Y-3.09
X6.57Y-3.83
X6.57Y-6.4365
X6.57Y-7.1765
X6.71Y-2.44
X6.71Y-5.7865
X6.81Y-2.44
X6.81Y-2.97
X6.81Y-5.7865
X6.81Y-6.3165
X8.958Y-1.93
X8.958Y-3.95
X8.958Y-5.2765
X8.958Y-7.2965
X9.088Y-1.73
X9.088Y-2.97
X9.088Y-5.0765
X9.088Y-6.3165
X9.258Y-1.93
X9.258Y-5.2765
X9.288Y-3.49
X9.288Y-4.21
X9.288Y-6.8365
X9.288Y-7.5565
X9.438Y-2.51
X9.438Y-3.74
X9.438Y-5.8565
X9.438Y-7.0865
X9.518Y-1.73
X9.518Y-3.95
X9.518Y-5.0765
X9.518Y-7.2965
X9.598Y-2.86
X9.598Y-3.16
X9.598Y-6.2065
X9.598Y-6.5065
X9.698Y-2.86
X9.698Y-3.16
X9.698Y-6.2065
X9.698Y-6.5065
X9.748Y-3.74
X9.748Y-7.0865
X9.798Y-2.39
X9.798Y-2.86
X9.798Y-3.16
X9.798Y-5.7365
X9.798Y-6.2065
X9.798Y-6.5065
X9.818Y-3.95
X9.818Y-4.11
X9.818Y-4.21
X9.818Y-7.2965
X9.818Y-7.4565
X9.818Y-7.5565
X9.898Y-2.11
X9.898Y-2.39
X9.898Y-2.86
X9.898Y-3.16
X9.898Y-5.4565
X9.898Y-5.7365
X9.898Y-6.2065
X9.898Y-6.5065
X9.998Y-2.86
X9.998Y-3.16
X9.998Y-6.2065
X9.998Y-6.5065
X10.048Y-3.74
X10.048Y-4.11
X10.048Y-4.21
X10.048Y-7.0865
X10.048Y-7.4565
X10.048Y-7.5565
X10.098Y-2.11
X10.098Y-2.39
X10.098Y-2.86
X10.098Y-3.16
X10.098Y-5.4565
X10.098Y-5.7365
X10.098Y-6.2065
X10.098Y-6.5065
X10.198Y-2.39
X10.198Y-2.86
X10.198Y-3.16
X10.198Y-3.7
X10.198Y-3.8
X10.198Y-5.7365
X10.198Y-6.2065
X10.198Y-6.5065
X10.198Y-7.0465
X10.198Y-7.1465
X10.278Y-4.11
X10.278Y-4.21
X10.278Y-7.4565
X10.278Y-7.5565
X10.298Y-2.86
X10.298Y-3.16
X10.298Y-6.2065
X10.298Y-6.5065
X10.398Y-2.15
X10.398Y-2.25
X10.398Y-2.41
X10.398Y-2.86
X10.398Y-3.16
X10.398Y-3.62
X10.398Y-3.92
X10.398Y-5.4965
X10.398Y-5.5965
X10.398Y-5.7565
X10.398Y-6.2065
X10.398Y-6.5065
X10.398Y-6.9665
X10.398Y-7.2665
X10.498Y-2.86
X10.498Y-3.16
X10.498Y-6.2065
X10.498Y-6.5065
X10.508Y-4.11
X10.508Y-4.21
X10.508Y-7.4565
X10.508Y-7.5565
X10.528Y-1.93
X10.528Y-5.2765
X10.548Y-3.62
X10.548Y-3.92
X10.548Y-6.9665
X10.548Y-7.2665
X10.598Y-2.86
X10.598Y-3.16
X10.598Y-6.2065
X10.598Y-6.5065
X10.698Y-2.86
X10.698Y-3.16
X10.698Y-3.62
X10.698Y-3.92
X10.698Y-6.2065
X10.698Y-6.5065
X10.698Y-6.9665
X10.698Y-7.2665
X10.798Y-2.86
X10.798Y-3.16
X10.798Y-6.2065
X10.798Y-6.5065
X10.878Y-3.89
X10.878Y-4.19
X10.878Y-7.2365
X10.878Y-7.5365
X10.898Y-2.86
X10.898Y-3.16
X10.898Y-6.2065
X10.898Y-6.5065
X11.068Y-1.73
X11.068Y-5.0765
X11.118Y-2.66
X11.118Y-6.0065
X11.318Y-1.73
X11.318Y-5.0765
X11.418Y-1.73
X11.418Y-2.41
X11.418Y-2.66
X11.418Y-5.0765
X11.418Y-5.7565
X11.418Y-6.0065
X11.458Y-3.53
X11.458Y-3.83
X11.458Y-6.8765
X11.458Y-7.1765
X11.558Y-3.53
X11.558Y-3.83
X11.558Y-6.8765
X11.558Y-7.1765
X11.628Y-2.07
X11.628Y-2.37
X11.628Y-5.4165
X11.628Y-5.7165
X11.658Y-1.72
X11.658Y-1.82
X11.658Y-3.53
X11.658Y-3.83
X11.658Y-5.0665
X11.658Y-5.1665
X11.658Y-6.8765
X11.658Y-7.1765
X11.758Y-3.53
X11.758Y-3.83
X11.758Y-6.8765
X11.758Y-7.1765
X11.848Y-1.55
X11.848Y-2.33
X11.848Y-4.8965
X11.848Y-5.6765
X11.858Y-3.53
X11.858Y-3.83
X11.858Y-6.8765
X11.858Y-7.1765
X11.898Y-2.97
X11.898Y-6.3165
X11.958Y-3.53
X11.958Y-3.83
X11.958Y-6.8765
X11.958Y-7.1765
X12.028Y-1.7
X12.028Y-5.0465
X12.038Y-2.83
X12.038Y-6.1765
X12.058Y-3.53
X12.058Y-3.83
X12.058Y-6.8765
X12.058Y-7.1765
X12.128Y-1.7
X12.128Y-5.0465
X12.138Y-2.83
X12.138Y-6.1765
X12.158Y-3.53
X12.158Y-3.83
X12.158Y-6.8765
X12.158Y-7.1765
X12.318Y-3.09
X12.318Y-3.83
X12.318Y-6.4365
X12.318Y-7.1765
X12.458Y-2.44
X12.458Y-5.7865
X12.558Y-2.44
X12.558Y-2.97
X12.558Y-5.7865
X12.558Y-6.3165
T2
X5.71Y-3.23
X5.71Y-6.5765
X5.81Y-3.23
X5.81Y-6.5765
X5.89Y-4.095
X5.89Y-7.4415
X5.945Y-4.205
X5.945Y-7.5515
X6.Y-4.095
X6.Y-7.4415
X6.01Y-3.23
X6.01Y-6.5765
X6.055Y-4.205
X6.055Y-7.5515
X6.11Y-3.23
X6.11Y-4.095
X6.11Y-6.5765
X6.11Y-7.4415
X6.165Y-4.205
X6.165Y-7.5515
X6.22Y-4.095
X6.22Y-7.4415
X6.275Y-4.205
X6.275Y-7.5515
X6.28Y-1.92
X6.28Y-5.2665
X6.29Y-2.24
X6.29Y-2.58
X6.29Y-5.5865
X6.29Y-5.9265
X6.31Y-3.23
X6.31Y-6.5765
X6.33Y-4.095
X6.33Y-7.4415
X6.38Y-1.92
X6.38Y-5.2665
X6.39Y-2.24
X6.39Y-2.34
X6.39Y-2.58
X6.39Y-5.5865
X6.39Y-5.6865
X6.39Y-5.9265
X6.41Y-3.23
X6.41Y-6.5765
X6.71Y-3.23
X6.71Y-3.53
X6.71Y-3.83
X6.71Y-6.5765
X6.71Y-6.8765
X6.71Y-7.1765
X6.81Y-3.23
X6.81Y-3.53
X6.81Y-3.83
X6.81Y-6.5765
X6.81Y-6.8765
X6.81Y-7.1765
X11.458Y-3.23
X11.458Y-6.5765
X11.558Y-3.23
X11.558Y-6.5765
X11.638Y-4.095
X11.638Y-7.4415
X11.693Y-4.205
X11.693Y-7.5515
X11.748Y-4.095
X11.748Y-7.4415
X11.758Y-3.23
X11.758Y-6.5765
X11.803Y-4.205
X11.803Y-7.5515
X11.858Y-3.23
X11.858Y-4.095
X11.858Y-6.5765
X11.858Y-7.4415
X11.913Y-4.205
X11.913Y-7.5515
X11.968Y-4.095
X11.968Y-7.4415
X12.023Y-4.205
X12.023Y-7.5515
X12.028Y-1.92
X12.028Y-5.2665
X12.038Y-2.24
X12.038Y-2.58
X12.038Y-5.5865
X12.038Y-5.9265
X12.058Y-3.23
X12.058Y-6.5765
X12.078Y-4.095
X12.078Y-7.4415
X12.128Y-1.92
X12.128Y-5.2665
X12.138Y-2.24
X12.138Y-2.34
X12.138Y-2.58
X12.138Y-5.5865
X12.138Y-5.6865
X12.138Y-5.9265
X12.158Y-3.23
X12.158Y-6.5765
X12.458Y-3.23
X12.458Y-3.53
X12.458Y-3.83
X12.458Y-6.5765
X12.458Y-6.8765
X12.458Y-7.1765
X12.558Y-3.23
X12.558Y-3.53
X12.558Y-3.83
X12.558Y-6.5765
X12.558Y-6.8765
X12.558Y-7.1765
T3
X1.89Y-1.55
X1.89Y-1.65
X1.89Y-1.75
X1.89Y-1.85
X1.89Y-1.95
X1.89Y-2.05
X1.89Y-2.15
X1.89Y-2.25
X1.89Y-2.35
X1.89Y-2.45
X1.89Y-2.55
X1.89Y-2.65
X1.89Y-2.75
X1.89Y-2.85
X1.89Y-2.95
X1.89Y-3.05
X1.89Y-3.15
X1.89Y-3.25
X1.89Y-3.35
X1.89Y-3.45
X1.89Y-3.55
X1.89Y-3.65
X1.89Y-3.75
X1.89Y-3.85
X1.89Y-3.95
X1.89Y-4.05
X1.89Y-4.15
X1.89Y-4.25
X1.89Y-4.35
X1.89Y-4.45
X1.89Y-4.8965
X1.89Y-4.9965
X1.89Y-5.0965
X1.89Y-5.1965
X1.89Y-5.2965
X1.89Y-5.3965
X1.89Y-5.4965
X1.89Y-5.5965
X1.89Y-5.6965
X1.89Y-5.7965
X1.89Y-5.8965
X1.89Y-5.9965
X1.89Y-6.0965
X1.89Y-6.1965
X1.89Y-6.2965
X1.89Y-6.3965
X1.89Y-6.4965
X1.89Y-6.5965
X1.89Y-6.6965
X1.89Y-6.7965
X1.89Y-6.8965
X1.89Y-6.9965
X1.89Y-7.0965
X1.89Y-7.1965
X1.89Y-7.2965
X1.89Y-7.3965
X1.89Y-7.4965
X1.89Y-7.5965
X1.89Y-7.6965
X1.89Y-7.7965
X1.99Y-1.55
X1.99Y-1.65
X1.99Y-1.75
X1.99Y-1.85
X1.99Y-1.95
X1.99Y-2.05
X1.99Y-2.15
X1.99Y-2.25
X1.99Y-2.35
X1.99Y-2.45
X1.99Y-2.55
X1.99Y-2.65
X1.99Y-2.75
X1.99Y-2.85
X1.99Y-2.95
X1.99Y-3.05
X1.99Y-3.15
X1.99Y-3.25
X1.99Y-3.35
X1.99Y-3.45
X1.99Y-3.55
X1.99Y-3.65
X1.99Y-3.75
X1.99Y-3.85
X1.99Y-3.95
X1.99Y-4.05
X1.99Y-4.15
X1.99Y-4.25
X1.99Y-4.35
X1.99Y-4.45
X1.99Y-4.8965
X1.99Y-4.9965
X1.99Y-5.0965
X1.99Y-5.1965
X1.99Y-5.2965
X1.99Y-5.3965
X1.99Y-5.4965
X1.99Y-5.5965
X1.99Y-5.6965
X1.99Y-5.7965
X1.99Y-5.8965
X1.99Y-5.9965
X1.99Y-6.0965
X1.99Y-6.1965
X1.99Y-6.2965
X1.99Y-6.3965
X1.99Y-6.4965
X1.99Y-6.5965
X1.99Y-6.6965
X1.99Y-6.7965
X1.99Y-6.8965
X1.99Y-6.9965
X1.99Y-7.0965
X1.99Y-7.1965
X1.99Y-7.2965
X1.99Y-7.3965
X1.99Y-7.4965
X1.99Y-7.5965
X1.99Y-7.6965
X1.99Y-7.7965
X2.09Y-1.55
X2.09Y-1.65
X2.09Y-1.75
X2.09Y-1.85
X2.09Y-1.95
X2.09Y-2.05
X2.09Y-2.15
X2.09Y-2.25
X2.09Y-2.35
X2.09Y-2.45
X2.09Y-2.55
X2.09Y-2.65
X2.09Y-2.75
X2.09Y-2.85
X2.09Y-2.95
X2.09Y-3.05
X2.09Y-3.15
X2.09Y-3.25
X2.09Y-3.35
X2.09Y-3.45
X2.09Y-3.55
X2.09Y-3.65
X2.09Y-3.75
X2.09Y-3.85
X2.09Y-3.95
X2.09Y-4.05
X2.09Y-4.15
X2.09Y-4.25
X2.09Y-4.35
X2.09Y-4.45
X2.09Y-4.8965
X2.09Y-4.9965
X2.09Y-5.0965
X2.09Y-5.1965
X2.09Y-5.2965
X2.09Y-5.3965
X2.09Y-5.4965
X2.09Y-5.5965
X2.09Y-5.6965
X2.09Y-5.7965
X2.09Y-5.8965
X2.09Y-5.9965
X2.09Y-6.0965
X2.09Y-6.1965
X2.09Y-6.2965
X2.09Y-6.3965
X2.09Y-6.4965
X2.09Y-6.5965
X2.09Y-6.6965
X2.09Y-6.7965
X2.09Y-6.8965
X2.09Y-6.9965
X2.09Y-7.0965
X2.09Y-7.1965
X2.09Y-7.2965
X2.09Y-7.3965
X2.09Y-7.4965
X2.09Y-7.5965
X2.09Y-7.6965
X2.09Y-7.7965
X2.19Y-1.55
X2.19Y-1.65
X2.19Y-1.75
X2.19Y-1.85
X2.19Y-1.95
X2.19Y-2.05
X2.19Y-2.15
X2.19Y-2.25
X2.19Y-2.35
X2.19Y-2.45
X2.19Y-2.55
X2.19Y-2.65
X2.19Y-2.75
X2.19Y-2.85
X2.19Y-2.95
X2.19Y-3.05
X2.19Y-3.15
X2.19Y-3.25
X2.19Y-3.35
X2.19Y-3.45
X2.19Y-3.55
X2.19Y-3.65
X2.19Y-3.75
X2.19Y-3.85
X2.19Y-3.95
X2.19Y-4.05
X2.19Y-4.15
X2.19Y-4.25
X2.19Y-4.35
X2.19Y-4.45
X2.19Y-4.8965
X2.19Y-4.9965
X2.19Y-5.0965
X2.19Y-5.1965
X2.19Y-5.2965
X2.19Y-5.3965
X2.19Y-5.4965
X2.19Y-5.5965
X2.19Y-5.6965
X2.19Y-5.7965
X2.19Y-5.8965
X2.19Y-5.9965
X2.19Y-6.0965
X2.19Y-6.1965
X2.19Y-6.2965
X2.19Y-6.3965
X2.19Y-6.4965
X2.19Y-6.5965
X2.19Y-6.6965
X2.19Y-6.7965
X2.19Y-6.8965
X2.19Y-6.9965
X2.19Y-7.0965
X2.19Y-7.1965
X2.19Y-7.2965
X2.19Y-7.3965
X2.19Y-7.4965
X2.19Y-7.5965
X2.19Y-7.6965
X2.19Y-7.7965
X2.29Y-1.55
X2.29Y-1.65
X2.29Y-1.75
X2.29Y-1.85
X2.29Y-1.95
X2.29Y-2.05
X2.29Y-2.15
X2.29Y-2.25
X2.29Y-2.35
X2.29Y-2.45
X2.29Y-2.55
X2.29Y-2.65
X2.29Y-2.75
X2.29Y-2.85
X2.29Y-2.95
X2.29Y-3.05
X2.29Y-3.15
X2.29Y-3.25
X2.29Y-3.35
X2.29Y-3.45
X2.29Y-3.55
X2.29Y-3.65
X2.29Y-3.75
X2.29Y-3.85
X2.29Y-3.95
X2.29Y-4.05
X2.29Y-4.15
X2.29Y-4.25
X2.29Y-4.35
X2.29Y-4.45
X2.29Y-4.8965
X2.29Y-4.9965
X2.29Y-5.0965
X2.29Y-5.1965
X2.29Y-5.2965
X2.29Y-5.3965
X2.29Y-5.4965
X2.29Y-5.5965
X2.29Y-5.6965
X2.29Y-5.7965
X2.29Y-5.8965
X2.29Y-5.9965
X2.29Y-6.0965
X2.29Y-6.1965
X2.29Y-6.2965
X2.29Y-6.3965
X2.29Y-6.4965
X2.29Y-6.5965
X2.29Y-6.6965
X2.29Y-6.7965
X2.29Y-6.8965
X2.29Y-6.9965
X2.29Y-7.0965
X2.29Y-7.1965
X2.29Y-7.2965
X2.29Y-7.3965
X2.29Y-7.4965
X2.29Y-7.5965
X2.29Y-7.6965
X2.29Y-7.7965
X2.39Y-1.55
X2.39Y-1.65
X2.39Y-1.75
X2.39Y-1.85
X2.39Y-1.95
X2.39Y-2.05
X2.39Y-2.15
X2.39Y-2.25
X2.39Y-2.35
X2.39Y-2.45
X2.39Y-2.55
X2.39Y-2.65
X2.39Y-2.75
X2.39Y-2.85
X2.39Y-2.95
X2.39Y-3.05
X2.39Y-3.15
X2.39Y-3.25
X2.39Y-3.35
X2.39Y-3.45
X2.39Y-3.55
X2.39Y-3.65
X2.39Y-3.75
X2.39Y-3.85
X2.39Y-3.95
X2.39Y-4.05
X2.39Y-4.15
X2.39Y-4.25
X2.39Y-4.35
X2.39Y-4.45
X2.39Y-4.8965
X2.39Y-4.9965
X2.39Y-5.0965
X2.39Y-5.1965
X2.39Y-5.2965
X2.39Y-5.3965
X2.39Y-5.4965
X2.39Y-5.5965
X2.39Y-5.6965
X2.39Y-5.7965
X2.39Y-5.8965
X2.39Y-5.9965
X2.39Y-6.0965
X2.39Y-6.1965
X2.39Y-6.2965
X2.39Y-6.3965
X2.39Y-6.4965
X2.39Y-6.5965
X2.39Y-6.6965
X2.39Y-6.7965
X2.39Y-6.8965
X2.39Y-6.9965
X2.39Y-7.0965
X2.39Y-7.1965
X2.39Y-7.2965
X2.39Y-7.3965
X2.39Y-7.4965
X2.39Y-7.5965
X2.39Y-7.6965
X2.39Y-7.7965
X2.49Y-1.55
X2.49Y-1.65
X2.49Y-1.75
X2.49Y-1.85
X2.49Y-1.95
X2.49Y-2.05
X2.49Y-2.15
X2.49Y-2.25
X2.49Y-2.35
X2.49Y-2.45
X2.49Y-2.55
X2.49Y-2.65
X2.49Y-2.75
X2.49Y-2.85
X2.49Y-2.95
X2.49Y-3.05
X2.49Y-3.15
X2.49Y-3.25
X2.49Y-3.35
X2.49Y-3.45
X2.49Y-3.55
X2.49Y-3.65
X2.49Y-3.75
X2.49Y-3.85
X2.49Y-3.95
X2.49Y-4.05
X2.49Y-4.15
X2.49Y-4.25
X2.49Y-4.35
X2.49Y-4.45
X2.49Y-4.8965
X2.49Y-4.9965
X2.49Y-5.0965
X2.49Y-5.1965
X2.49Y-5.2965
X2.49Y-5.3965
X2.49Y-5.4965
X2.49Y-5.5965
X2.49Y-5.6965
X2.49Y-5.7965
X2.49Y-5.8965
X2.49Y-5.9965
X2.49Y-6.0965
X2.49Y-6.1965
X2.49Y-6.2965
X2.49Y-6.3965
X2.49Y-6.4965
X2.49Y-6.5965
X2.49Y-6.6965
X2.49Y-6.7965
X2.49Y-6.8965
X2.49Y-6.9965
X2.49Y-7.0965
X2.49Y-7.1965
X2.49Y-7.2965
X2.49Y-7.3965
X2.49Y-7.4965
X2.49Y-7.5965
X2.49Y-7.6965
X2.49Y-7.7965
X2.59Y-1.55
X2.59Y-1.65
X2.59Y-1.75
X2.59Y-1.85
X2.59Y-1.95
X2.59Y-2.05
X2.59Y-2.15
X2.59Y-2.25
X2.59Y-2.35
X2.59Y-2.45
X2.59Y-2.55
X2.59Y-2.65
X2.59Y-2.75
X2.59Y-2.85
X2.59Y-2.95
X2.59Y-3.05
X2.59Y-3.15
X2.59Y-3.25
X2.59Y-3.35
X2.59Y-3.45
X2.59Y-3.55
X2.59Y-3.65
X2.59Y-3.75
X2.59Y-3.85
X2.59Y-3.95
X2.59Y-4.05
X2.59Y-4.15
X2.59Y-4.25
X2.59Y-4.35
X2.59Y-4.45
X2.59Y-4.8965
X2.59Y-4.9965
X2.59Y-5.0965
X2.59Y-5.1965
X2.59Y-5.2965
X2.59Y-5.3965
X2.59Y-5.4965
X2.59Y-5.5965
X2.59Y-5.6965
X2.59Y-5.7965
X2.59Y-5.8965
X2.59Y-5.9965
X2.59Y-6.0965
X2.59Y-6.1965
X2.59Y-6.2965
X2.59Y-6.3965
X2.59Y-6.4965
X2.59Y-6.5965
X2.59Y-6.6965
X2.59Y-6.7965
X2.59Y-6.8965
X2.59Y-6.9965
X2.59Y-7.0965
X2.59Y-7.1965
X2.59Y-7.2965
X2.59Y-7.3965
X2.59Y-7.4965
X2.59Y-7.5965
X2.59Y-7.6965
X2.59Y-7.7965
X2.69Y-1.55
X2.69Y-1.65
X2.69Y-1.75
X2.69Y-1.85
X2.69Y-1.95
X2.69Y-2.05
X2.69Y-2.15
X2.69Y-2.25
X2.69Y-2.35
X2.69Y-2.45
X2.69Y-2.55
X2.69Y-2.65
X2.69Y-2.75
X2.69Y-2.85
X2.69Y-2.95
X2.69Y-3.05
X2.69Y-3.15
X2.69Y-3.25
X2.69Y-3.35
X2.69Y-3.45
X2.69Y-3.55
X2.69Y-3.65
X2.69Y-3.75
X2.69Y-3.85
X2.69Y-3.95
X2.69Y-4.05
X2.69Y-4.15
X2.69Y-4.25
X2.69Y-4.35
X2.69Y-4.45
X2.69Y-4.8965
X2.69Y-4.9965
X2.69Y-5.0965
X2.69Y-5.1965
X2.69Y-5.2965
X2.69Y-5.3965
X2.69Y-5.4965
X2.69Y-5.5965
X2.69Y-5.6965
X2.69Y-5.7965
X2.69Y-5.8965
X2.69Y-5.9965
X2.69Y-6.0965
X2.69Y-6.1965
X2.69Y-6.2965
X2.69Y-6.3965
X2.69Y-6.4965
X2.69Y-6.5965
X2.69Y-6.6965
X2.69Y-6.7965
X2.69Y-6.8965
X2.69Y-6.9965
X2.69Y-7.0965
X2.69Y-7.1965
X2.69Y-7.2965
X2.69Y-7.3965
X2.69Y-7.4965
X2.69Y-7.5965
X2.69Y-7.6965
X2.69Y-7.7965
X2.79Y-1.55
X2.79Y-1.65
X2.79Y-1.75
X2.79Y-1.85
X2.79Y-1.95
X2.79Y-2.05
X2.79Y-2.15
X2.79Y-2.25
X2.79Y-2.35
X2.79Y-2.45
X2.79Y-2.55
X2.79Y-2.65
X2.79Y-2.75
X2.79Y-2.85
X2.79Y-2.95
X2.79Y-3.05
X2.79Y-3.15
X2.79Y-3.25
X2.79Y-3.35
X2.79Y-3.45
X2.79Y-3.55
X2.79Y-3.65
X2.79Y-3.75
X2.79Y-3.85
X2.79Y-3.95
X2.79Y-4.05
X2.79Y-4.15
X2.79Y-4.25
X2.79Y-4.35
X2.79Y-4.45
X2.79Y-4.8965
X2.79Y-4.9965
X2.79Y-5.0965
X2.79Y-5.1965
X2.79Y-5.2965
X2.79Y-5.3965
X2.79Y-5.4965
X2.79Y-5.5965
X2.79Y-5.6965
X2.79Y-5.7965
X2.79Y-5.8965
X2.79Y-5.9965
X2.79Y-6.0965
X2.79Y-6.1965
X2.79Y-6.2965
X2.79Y-6.3965
X2.79Y-6.4965
X2.79Y-6.5965
X2.79Y-6.6965
X2.79Y-6.7965
X2.79Y-6.8965
X2.79Y-6.9965
X2.79Y-7.0965
X2.79Y-7.1965
X2.79Y-7.2965
X2.79Y-7.3965
X2.79Y-7.4965
X2.79Y-7.5965
X2.79Y-7.6965
X2.79Y-7.7965
X2.89Y-1.55
X2.89Y-1.65
X2.89Y-1.75
X2.89Y-1.85
X2.89Y-1.95
X2.89Y-2.05
X2.89Y-2.15
X2.89Y-2.25
X2.89Y-2.35
X2.89Y-2.45
X2.89Y-2.55
X2.89Y-2.65
X2.89Y-2.75
X2.89Y-2.85
X2.89Y-2.95
X2.89Y-3.05
X2.89Y-3.15
X2.89Y-3.25
X2.89Y-3.35
X2.89Y-3.45
X2.89Y-3.55
X2.89Y-3.65
X2.89Y-3.75
X2.89Y-3.85
X2.89Y-3.95
X2.89Y-4.05
X2.89Y-4.15
X2.89Y-4.25
X2.89Y-4.35
X2.89Y-4.45
X2.89Y-4.8965
X2.89Y-4.9965
X2.89Y-5.0965
X2.89Y-5.1965
X2.89Y-5.2965
X2.89Y-5.3965
X2.89Y-5.4965
X2.89Y-5.5965
X2.89Y-5.6965
X2.89Y-5.7965
X2.89Y-5.8965
X2.89Y-5.9965
X2.89Y-6.0965
X2.89Y-6.1965
X2.89Y-6.2965
X2.89Y-6.3965
X2.89Y-6.4965
X2.89Y-6.5965
X2.89Y-6.6965
X2.89Y-6.7965
X2.89Y-6.8965
X2.89Y-6.9965
X2.89Y-7.0965
X2.89Y-7.1965
X2.89Y-7.2965
X2.89Y-7.3965
X2.89Y-7.4965
X2.89Y-7.5965
X2.89Y-7.6965
X2.89Y-7.7965
X2.99Y-1.55
X2.99Y-1.65
X2.99Y-1.75
X2.99Y-1.85
X2.99Y-1.95
X2.99Y-2.05
X2.99Y-2.15
X2.99Y-2.25
X2.99Y-2.35
X2.99Y-2.45
X2.99Y-2.55
X2.99Y-2.65
X2.99Y-2.75
X2.99Y-2.85
X2.99Y-2.95
X2.99Y-3.05
X2.99Y-3.15
X2.99Y-3.25
X2.99Y-3.35
X2.99Y-3.45
X2.99Y-3.55
X2.99Y-3.65
X2.99Y-3.75
X2.99Y-3.85
X2.99Y-3.95
X2.99Y-4.05
X2.99Y-4.15
X2.99Y-4.25
X2.99Y-4.35
X2.99Y-4.45
X2.99Y-4.8965
X2.99Y-4.9965
X2.99Y-5.0965
X2.99Y-5.1965
X2.99Y-5.2965
X2.99Y-5.3965
X2.99Y-5.4965
X2.99Y-5.5965
X2.99Y-5.6965
X2.99Y-5.7965
X2.99Y-5.8965
X2.99Y-5.9965
X2.99Y-6.0965
X2.99Y-6.1965
X2.99Y-6.2965
X2.99Y-6.3965
X2.99Y-6.4965
X2.99Y-6.5965
X2.99Y-6.6965
X2.99Y-6.7965
X2.99Y-6.8965
X2.99Y-6.9965
X2.99Y-7.0965
X2.99Y-7.1965
X2.99Y-7.2965
X2.99Y-7.3965
X2.99Y-7.4965
X2.99Y-7.5965
X2.99Y-7.6965
X2.99Y-7.7965
X3.34Y-3.24
X3.34Y-3.34
X3.34Y-6.5865
X3.34Y-6.6865
X3.44Y-3.24
X3.44Y-3.34
X3.44Y-6.5865
X3.44Y-6.6865
X3.54Y-3.24
X3.54Y-3.34
X3.54Y-6.5865
X3.54Y-6.6865
X3.85Y-2.66
X3.85Y-3.36
X3.85Y-6.0065
X3.85Y-6.7065
X3.95Y-2.66
X3.95Y-3.36
X3.95Y-6.0065
X3.95Y-6.7065
X4.05Y-2.66
X4.05Y-3.36
X4.05Y-6.0065
X4.05Y-6.7065
X4.15Y-2.66
X4.15Y-3.36
X4.15Y-6.0065
X4.15Y-6.7065
X4.25Y-2.66
X4.25Y-3.36
X4.25Y-6.0065
X4.25Y-6.7065
X4.35Y-2.66
X4.35Y-3.36
X4.35Y-6.0065
X4.35Y-6.7065
X4.45Y-2.66
X4.45Y-3.36
X4.45Y-6.0065
X4.45Y-6.7065
X4.55Y-2.66
X4.55Y-3.36
X4.55Y-6.0065
X4.55Y-6.7065
X4.65Y-2.66
X4.65Y-3.36
X4.65Y-6.0065
X4.65Y-6.7065
X4.75Y-2.66
X4.75Y-3.36
X4.75Y-6.0065
X4.75Y-6.7065
X4.85Y-2.66
X4.85Y-3.36
X4.85Y-6.0065
X4.85Y-6.7065
X4.95Y-2.66
X4.95Y-3.36
X4.95Y-6.0065
X4.95Y-6.7065
X5.05Y-2.66
X5.05Y-3.36
X5.05Y-6.0065
X5.05Y-6.7065
X5.15Y-2.66
X5.15Y-3.36
X5.15Y-6.0065
X5.15Y-6.7065
X5.33Y-3.66
X5.33Y-3.76
X5.33Y-3.86
X5.33Y-7.0065
X5.33Y-7.1065
X5.33Y-7.2065
X5.555Y-4.15
X5.555Y-7.4965
X5.6025Y-4.15
X5.6025Y-7.4965
X5.6475Y-4.15
X5.6475Y-7.4965
X5.695Y-4.15
X5.695Y-7.4965
X6.02Y-2.64
X6.02Y-2.74
X6.02Y-2.84
X6.02Y-5.9865
X6.02Y-6.0865
X6.02Y-6.1865
X6.515Y-4.15
X6.515Y-7.4965
X6.56Y-4.15
X6.56Y-7.4965
X6.61Y-4.15
X6.61Y-7.4965
X6.655Y-4.15
X6.655Y-7.4965
X7.638Y-1.55
X7.638Y-1.65
X7.638Y-1.75
X7.638Y-1.85
X7.638Y-1.95
X7.638Y-2.05
X7.638Y-2.15
X7.638Y-2.25
X7.638Y-2.35
X7.638Y-2.45
X7.638Y-2.55
X7.638Y-2.65
X7.638Y-2.75
X7.638Y-2.85
X7.638Y-2.95
X7.638Y-3.05
X7.638Y-3.15
X7.638Y-3.25
X7.638Y-3.35
X7.638Y-3.45
X7.638Y-3.55
X7.638Y-3.65
X7.638Y-3.75
X7.638Y-3.85
X7.638Y-3.95
X7.638Y-4.05
X7.638Y-4.15
X7.638Y-4.25
X7.638Y-4.35
X7.638Y-4.45
X7.638Y-4.8965
X7.638Y-4.9965
X7.638Y-5.0965
X7.638Y-5.1965
X7.638Y-5.2965
X7.638Y-5.3965
X7.638Y-5.4965
X7.638Y-5.5965
X7.638Y-5.6965
X7.638Y-5.7965
X7.638Y-5.8965
X7.638Y-5.9965
X7.638Y-6.0965
X7.638Y-6.1965
X7.638Y-6.2965
X7.638Y-6.3965
X7.638Y-6.4965
X7.638Y-6.5965
X7.638Y-6.6965
X7.638Y-6.7965
X7.638Y-6.8965
X7.638Y-6.9965
X7.638Y-7.0965
X7.638Y-7.1965
X7.638Y-7.2965
X7.638Y-7.3965
X7.638Y-7.4965
X7.638Y-7.5965
X7.638Y-7.6965
X7.638Y-7.7965
X7.738Y-1.55
X7.738Y-1.65
X7.738Y-1.75
X7.738Y-1.85
X7.738Y-1.95
X7.738Y-2.05
X7.738Y-2.15
X7.738Y-2.25
X7.738Y-2.35
X7.738Y-2.45
X7.738Y-2.55
X7.738Y-2.65
X7.738Y-2.75
X7.738Y-2.85
X7.738Y-2.95
X7.738Y-3.05
X7.738Y-3.15
X7.738Y-3.25
X7.738Y-3.35
X7.738Y-3.45
X7.738Y-3.55
X7.738Y-3.65
X7.738Y-3.75
X7.738Y-3.85
X7.738Y-3.95
X7.738Y-4.05
X7.738Y-4.15
X7.738Y-4.25
X7.738Y-4.35
X7.738Y-4.45
X7.738Y-4.8965
X7.738Y-4.9965
X7.738Y-5.0965
X7.738Y-5.1965
X7.738Y-5.2965
X7.738Y-5.3965
X7.738Y-5.4965
X7.738Y-5.5965
X7.738Y-5.6965
X7.738Y-5.7965
X7.738Y-5.8965
X7.738Y-5.9965
X7.738Y-6.0965
X7.738Y-6.1965
X7.738Y-6.2965
X7.738Y-6.3965
X7.738Y-6.4965
X7.738Y-6.5965
X7.738Y-6.6965
X7.738Y-6.7965
X7.738Y-6.8965
X7.738Y-6.9965
X7.738Y-7.0965
X7.738Y-7.1965
X7.738Y-7.2965
X7.738Y-7.3965
X7.738Y-7.4965
X7.738Y-7.5965
X7.738Y-7.6965
X7.738Y-7.7965
X7.838Y-1.55
X7.838Y-1.65
X7.838Y-1.75
X7.838Y-1.85
X7.838Y-1.95
X7.838Y-2.05
X7.838Y-2.15
X7.838Y-2.25
X7.838Y-2.35
X7.838Y-2.45
X7.838Y-2.55
X7.838Y-2.65
X7.838Y-2.75
X7.838Y-2.85
X7.838Y-2.95
X7.838Y-3.05
X7.838Y-3.15
X7.838Y-3.25
X7.838Y-3.35
X7.838Y-3.45
X7.838Y-3.55
X7.838Y-3.65
X7.838Y-3.75
X7.838Y-3.85
X7.838Y-3.95
X7.838Y-4.05
X7.838Y-4.15
X7.838Y-4.25
X7.838Y-4.35
X7.838Y-4.45
X7.838Y-4.8965
X7.838Y-4.9965
X7.838Y-5.0965
X7.838Y-5.1965
X7.838Y-5.2965
X7.838Y-5.3965
X7.838Y-5.4965
X7.838Y-5.5965
X7.838Y-5.6965
X7.838Y-5.7965
X7.838Y-5.8965
X7.838Y-5.9965
X7.838Y-6.0965
X7.838Y-6.1965
X7.838Y-6.2965
X7.838Y-6.3965
X7.838Y-6.4965
X7.838Y-6.5965
X7.838Y-6.6965
X7.838Y-6.7965
X7.838Y-6.8965
X7.838Y-6.9965
X7.838Y-7.0965
X7.838Y-7.1965
X7.838Y-7.2965
X7.838Y-7.3965
X7.838Y-7.4965
X7.838Y-7.5965
X7.838Y-7.6965
X7.838Y-7.7965
X7.938Y-1.55
X7.938Y-1.65
X7.938Y-1.75
X7.938Y-1.85
X7.938Y-1.95
X7.938Y-2.05
X7.938Y-2.15
X7.938Y-2.25
X7.938Y-2.35
X7.938Y-2.45
X7.938Y-2.55
X7.938Y-2.65
X7.938Y-2.75
X7.938Y-2.85
X7.938Y-2.95
X7.938Y-3.05
X7.938Y-3.15
X7.938Y-3.25
X7.938Y-3.35
X7.938Y-3.45
X7.938Y-3.55
X7.938Y-3.65
X7.938Y-3.75
X7.938Y-3.85
X7.938Y-3.95
X7.938Y-4.05
X7.938Y-4.15
X7.938Y-4.25
X7.938Y-4.35
X7.938Y-4.45
X7.938Y-4.8965
X7.938Y-4.9965
X7.938Y-5.0965
X7.938Y-5.1965
X7.938Y-5.2965
X7.938Y-5.3965
X7.938Y-5.4965
X7.938Y-5.5965
X7.938Y-5.6965
X7.938Y-5.7965
X7.938Y-5.8965
X7.938Y-5.9965
X7.938Y-6.0965
X7.938Y-6.1965
X7.938Y-6.2965
X7.938Y-6.3965
X7.938Y-6.4965
X7.938Y-6.5965
X7.938Y-6.6965
X7.938Y-6.7965
X7.938Y-6.8965
X7.938Y-6.9965
X7.938Y-7.0965
X7.938Y-7.1965
X7.938Y-7.2965
X7.938Y-7.3965
X7.938Y-7.4965
X7.938Y-7.5965
X7.938Y-7.6965
X7.938Y-7.7965
X8.038Y-1.55
X8.038Y-1.65
X8.038Y-1.75
X8.038Y-1.85
X8.038Y-1.95
X8.038Y-2.05
X8.038Y-2.15
X8.038Y-2.25
X8.038Y-2.35
X8.038Y-2.45
X8.038Y-2.55
X8.038Y-2.65
X8.038Y-2.75
X8.038Y-2.85
X8.038Y-2.95
X8.038Y-3.05
X8.038Y-3.15
X8.038Y-3.25
X8.038Y-3.35
X8.038Y-3.45
X8.038Y-3.55
X8.038Y-3.65
X8.038Y-3.75
X8.038Y-3.85
X8.038Y-3.95
X8.038Y-4.05
X8.038Y-4.15
X8.038Y-4.25
X8.038Y-4.35
X8.038Y-4.45
X8.038Y-4.8965
X8.038Y-4.9965
X8.038Y-5.0965
X8.038Y-5.1965
X8.038Y-5.2965
X8.038Y-5.3965
X8.038Y-5.4965
X8.038Y-5.5965
X8.038Y-5.6965
X8.038Y-5.7965
X8.038Y-5.8965
X8.038Y-5.9965
X8.038Y-6.0965
X8.038Y-6.1965
X8.038Y-6.2965
X8.038Y-6.3965
X8.038Y-6.4965
X8.038Y-6.5965
X8.038Y-6.6965
X8.038Y-6.7965
X8.038Y-6.8965
X8.038Y-6.9965
X8.038Y-7.0965
X8.038Y-7.1965
X8.038Y-7.2965
X8.038Y-7.3965
X8.038Y-7.4965
X8.038Y-7.5965
X8.038Y-7.6965
X8.038Y-7.7965
X8.138Y-1.55
X8.138Y-1.65
X8.138Y-1.75
X8.138Y-1.85
X8.138Y-1.95
X8.138Y-2.05
X8.138Y-2.15
X8.138Y-2.25
X8.138Y-2.35
X8.138Y-2.45
X8.138Y-2.55
X8.138Y-2.65
X8.138Y-2.75
X8.138Y-2.85
X8.138Y-2.95
X8.138Y-3.05
X8.138Y-3.15
X8.138Y-3.25
X8.138Y-3.35
X8.138Y-3.45
X8.138Y-3.55
X8.138Y-3.65
X8.138Y-3.75
X8.138Y-3.85
X8.138Y-3.95
X8.138Y-4.05
X8.138Y-4.15
X8.138Y-4.25
X8.138Y-4.35
X8.138Y-4.45
X8.138Y-4.8965
X8.138Y-4.9965
X8.138Y-5.0965
X8.138Y-5.1965
X8.138Y-5.2965
X8.138Y-5.3965
X8.138Y-5.4965
X8.138Y-5.5965
X8.138Y-5.6965
X8.138Y-5.7965
X8.138Y-5.8965
X8.138Y-5.9965
X8.138Y-6.0965
X8.138Y-6.1965
X8.138Y-6.2965
X8.138Y-6.3965
X8.138Y-6.4965
X8.138Y-6.5965
X8.138Y-6.6965
X8.138Y-6.7965
X8.138Y-6.8965
X8.138Y-6.9965
X8.138Y-7.0965
X8.138Y-7.1965
X8.138Y-7.2965
X8.138Y-7.3965
X8.138Y-7.4965
X8.138Y-7.5965
X8.138Y-7.6965
X8.138Y-7.7965
X8.238Y-1.55
X8.238Y-1.65
X8.238Y-1.75
X8.238Y-1.85
X8.238Y-1.95
X8.238Y-2.05
X8.238Y-2.15
X8.238Y-2.25
X8.238Y-2.35
X8.238Y-2.45
X8.238Y-2.55
X8.238Y-2.65
X8.238Y-2.75
X8.238Y-2.85
X8.238Y-2.95
X8.238Y-3.05
X8.238Y-3.15
X8.238Y-3.25
X8.238Y-3.35
X8.238Y-3.45
X8.238Y-3.55
X8.238Y-3.65
X8.238Y-3.75
X8.238Y-3.85
X8.238Y-3.95
X8.238Y-4.05
X8.238Y-4.15
X8.238Y-4.25
X8.238Y-4.35
X8.238Y-4.45
X8.238Y-4.8965
X8.238Y-4.9965
X8.238Y-5.0965
X8.238Y-5.1965
X8.238Y-5.2965
X8.238Y-5.3965
X8.238Y-5.4965
X8.238Y-5.5965
X8.238Y-5.6965
X8.238Y-5.7965
X8.238Y-5.8965
X8.238Y-5.9965
X8.238Y-6.0965
X8.238Y-6.1965
X8.238Y-6.2965
X8.238Y-6.3965
X8.238Y-6.4965
X8.238Y-6.5965
X8.238Y-6.6965
X8.238Y-6.7965
X8.238Y-6.8965
X8.238Y-6.9965
X8.238Y-7.0965
X8.238Y-7.1965
X8.238Y-7.2965
X8.238Y-7.3965
X8.238Y-7.4965
X8.238Y-7.5965
X8.238Y-7.6965
X8.238Y-7.7965
X8.338Y-1.55
X8.338Y-1.65
X8.338Y-1.75
X8.338Y-1.85
X8.338Y-1.95
X8.338Y-2.05
X8.338Y-2.15
X8.338Y-2.25
X8.338Y-2.35
X8.338Y-2.45
X8.338Y-2.55
X8.338Y-2.65
X8.338Y-2.75
X8.338Y-2.85
X8.338Y-2.95
X8.338Y-3.05
X8.338Y-3.15
X8.338Y-3.25
X8.338Y-3.35
X8.338Y-3.45
X8.338Y-3.55
X8.338Y-3.65
X8.338Y-3.75
X8.338Y-3.85
X8.338Y-3.95
X8.338Y-4.05
X8.338Y-4.15
X8.338Y-4.25
X8.338Y-4.35
X8.338Y-4.45
X8.338Y-4.8965
X8.338Y-4.9965
X8.338Y-5.0965
X8.338Y-5.1965
X8.338Y-5.2965
X8.338Y-5.3965
X8.338Y-5.4965
X8.338Y-5.5965
X8.338Y-5.6965
X8.338Y-5.7965
X8.338Y-5.8965
X8.338Y-5.9965
X8.338Y-6.0965
X8.338Y-6.1965
X8.338Y-6.2965
X8.338Y-6.3965
X8.338Y-6.4965
X8.338Y-6.5965
X8.338Y-6.6965
X8.338Y-6.7965
X8.338Y-6.8965
X8.338Y-6.9965
X8.338Y-7.0965
X8.338Y-7.1965
X8.338Y-7.2965
X8.338Y-7.3965
X8.338Y-7.4965
X8.338Y-7.5965
X8.338Y-7.6965
X8.338Y-7.7965
X8.438Y-1.55
X8.438Y-1.65
X8.438Y-1.75
X8.438Y-1.85
X8.438Y-1.95
X8.438Y-2.05
X8.438Y-2.15
X8.438Y-2.25
X8.438Y-2.35
X8.438Y-2.45
X8.438Y-2.55
X8.438Y-2.65
X8.438Y-2.75
X8.438Y-2.85
X8.438Y-2.95
X8.438Y-3.05
X8.438Y-3.15
X8.438Y-3.25
X8.438Y-3.35
X8.438Y-3.45
X8.438Y-3.55
X8.438Y-3.65
X8.438Y-3.75
X8.438Y-3.85
X8.438Y-3.95
X8.438Y-4.05
X8.438Y-4.15
X8.438Y-4.25
X8.438Y-4.35
X8.438Y-4.45
X8.438Y-4.8965
X8.438Y-4.9965
X8.438Y-5.0965
X8.438Y-5.1965
X8.438Y-5.2965
X8.438Y-5.3965
X8.438Y-5.4965
X8.438Y-5.5965
X8.438Y-5.6965
X8.438Y-5.7965
X8.438Y-5.8965
X8.438Y-5.9965
X8.438Y-6.0965
X8.438Y-6.1965
X8.438Y-6.2965
X8.438Y-6.3965
X8.438Y-6.4965
X8.438Y-6.5965
X8.438Y-6.6965
X8.438Y-6.7965
X8.438Y-6.8965
X8.438Y-6.9965
X8.438Y-7.0965
X8.438Y-7.1965
X8.438Y-7.2965
X8.438Y-7.3965
X8.438Y-7.4965
X8.438Y-7.5965
X8.438Y-7.6965
X8.438Y-7.7965
X8.538Y-1.55
X8.538Y-1.65
X8.538Y-1.75
X8.538Y-1.85
X8.538Y-1.95
X8.538Y-2.05
X8.538Y-2.15
X8.538Y-2.25
X8.538Y-2.35
X8.538Y-2.45
X8.538Y-2.55
X8.538Y-2.65
X8.538Y-2.75
X8.538Y-2.85
X8.538Y-2.95
X8.538Y-3.05
X8.538Y-3.15
X8.538Y-3.25
X8.538Y-3.35
X8.538Y-3.45
X8.538Y-3.55
X8.538Y-3.65
X8.538Y-3.75
X8.538Y-3.85
X8.538Y-3.95
X8.538Y-4.05
X8.538Y-4.15
X8.538Y-4.25
X8.538Y-4.35
X8.538Y-4.45
X8.538Y-4.8965
X8.538Y-4.9965
X8.538Y-5.0965
X8.538Y-5.1965
X8.538Y-5.2965
X8.538Y-5.3965
X8.538Y-5.4965
X8.538Y-5.5965
X8.538Y-5.6965
X8.538Y-5.7965
X8.538Y-5.8965
X8.538Y-5.9965
X8.538Y-6.0965
X8.538Y-6.1965
X8.538Y-6.2965
X8.538Y-6.3965
X8.538Y-6.4965
X8.538Y-6.5965
X8.538Y-6.6965
X8.538Y-6.7965
X8.538Y-6.8965
X8.538Y-6.9965
X8.538Y-7.0965
X8.538Y-7.1965
X8.538Y-7.2965
X8.538Y-7.3965
X8.538Y-7.4965
X8.538Y-7.5965
X8.538Y-7.6965
X8.538Y-7.7965
X8.638Y-1.55
X8.638Y-1.65
X8.638Y-1.75
X8.638Y-1.85
X8.638Y-1.95
X8.638Y-2.05
X8.638Y-2.15
X8.638Y-2.25
X8.638Y-2.35
X8.638Y-2.45
X8.638Y-2.55
X8.638Y-2.65
X8.638Y-2.75
X8.638Y-2.85
X8.638Y-2.95
X8.638Y-3.05
X8.638Y-3.15
X8.638Y-3.25
X8.638Y-3.35
X8.638Y-3.45
X8.638Y-3.55
X8.638Y-3.65
X8.638Y-3.75
X8.638Y-3.85
X8.638Y-3.95
X8.638Y-4.05
X8.638Y-4.15
X8.638Y-4.25
X8.638Y-4.35
X8.638Y-4.45
X8.638Y-4.8965
X8.638Y-4.9965
X8.638Y-5.0965
X8.638Y-5.1965
X8.638Y-5.2965
X8.638Y-5.3965
X8.638Y-5.4965
X8.638Y-5.5965
X8.638Y-5.6965
X8.638Y-5.7965
X8.638Y-5.8965
X8.638Y-5.9965
X8.638Y-6.0965
X8.638Y-6.1965
X8.638Y-6.2965
X8.638Y-6.3965
X8.638Y-6.4965
X8.638Y-6.5965
X8.638Y-6.6965
X8.638Y-6.7965
X8.638Y-6.8965
X8.638Y-6.9965
X8.638Y-7.0965
X8.638Y-7.1965
X8.638Y-7.2965
X8.638Y-7.3965
X8.638Y-7.4965
X8.638Y-7.5965
X8.638Y-7.6965
X8.638Y-7.7965
X8.738Y-1.55
X8.738Y-1.65
X8.738Y-1.75
X8.738Y-1.85
X8.738Y-1.95
X8.738Y-2.05
X8.738Y-2.15
X8.738Y-2.25
X8.738Y-2.35
X8.738Y-2.45
X8.738Y-2.55
X8.738Y-2.65
X8.738Y-2.75
X8.738Y-2.85
X8.738Y-2.95
X8.738Y-3.05
X8.738Y-3.15
X8.738Y-3.25
X8.738Y-3.35
X8.738Y-3.45
X8.738Y-3.55
X8.738Y-3.65
X8.738Y-3.75
X8.738Y-3.85
X8.738Y-3.95
X8.738Y-4.05
X8.738Y-4.15
X8.738Y-4.25
X8.738Y-4.35
X8.738Y-4.45
X8.738Y-4.8965
X8.738Y-4.9965
X8.738Y-5.0965
X8.738Y-5.1965
X8.738Y-5.2965
X8.738Y-5.3965
X8.738Y-5.4965
X8.738Y-5.5965
X8.738Y-5.6965
X8.738Y-5.7965
X8.738Y-5.8965
X8.738Y-5.9965
X8.738Y-6.0965
X8.738Y-6.1965
X8.738Y-6.2965
X8.738Y-6.3965
X8.738Y-6.4965
X8.738Y-6.5965
X8.738Y-6.6965
X8.738Y-6.7965
X8.738Y-6.8965
X8.738Y-6.9965
X8.738Y-7.0965
X8.738Y-7.1965
X8.738Y-7.2965
X8.738Y-7.3965
X8.738Y-7.4965
X8.738Y-7.5965
X8.738Y-7.6965
X8.738Y-7.7965
X9.088Y-3.24
X9.088Y-3.34
X9.088Y-6.5865
X9.088Y-6.6865
X9.188Y-3.24
X9.188Y-3.34
X9.188Y-6.5865
X9.188Y-6.6865
X9.288Y-3.24
X9.288Y-3.34
X9.288Y-6.5865
X9.288Y-6.6865
X9.598Y-2.66
X9.598Y-3.36
X9.598Y-6.0065
X9.598Y-6.7065
X9.698Y-2.66
X9.698Y-3.36
X9.698Y-6.0065
X9.698Y-6.7065
X9.798Y-2.66
X9.798Y-3.36
X9.798Y-6.0065
X9.798Y-6.7065
X9.898Y-2.66
X9.898Y-3.36
X9.898Y-6.0065
X9.898Y-6.7065
X9.998Y-2.66
X9.998Y-3.36
X9.998Y-6.0065
X9.998Y-6.7065
X10.098Y-2.66
X10.098Y-3.36
X10.098Y-6.0065
X10.098Y-6.7065
X10.198Y-2.66
X10.198Y-3.36
X10.198Y-6.0065
X10.198Y-6.7065
X10.298Y-2.66
X10.298Y-3.36
X10.298Y-6.0065
X10.298Y-6.7065
X10.398Y-2.66
X10.398Y-3.36
X10.398Y-6.0065
X10.398Y-6.7065
X10.498Y-2.66
X10.498Y-3.36
X10.498Y-6.0065
X10.498Y-6.7065
X10.598Y-2.66
X10.598Y-3.36
X10.598Y-6.0065
X10.598Y-6.7065
X10.698Y-2.66
X10.698Y-3.36
X10.698Y-6.0065
X10.698Y-6.7065
X10.798Y-2.66
X10.798Y-3.36
X10.798Y-6.0065
X10.798Y-6.7065
X10.898Y-2.66
X10.898Y-3.36
X10.898Y-6.0065
X10.898Y-6.7065
X11.078Y-3.66
X11.078Y-3.76
X11.078Y-3.86
X11.078Y-7.0065
X11.078Y-7.1065
X11.078Y-7.2065
X11.303Y-4.15
X11.303Y-7.4965
X11.3505Y-4.15
X11.3505Y-7.4965
X11.3955Y-4.15
X11.3955Y-7.4965
X11.443Y-4.15
X11.443Y-7.4965
X11.768Y-2.64
X11.768Y-2.74
X11.768Y-2.84
X11.768Y-5.9865
X11.768Y-6.0865
X11.768Y-6.1865
X12.263Y-4.15
X12.263Y-7.4965
X12.308Y-4.15
X12.308Y-7.4965
X12.358Y-4.15
X12.358Y-7.4965
X12.403Y-4.15
X12.403Y-7.4965
T4
X6.61Y-2.73
X6.61Y-6.0765
X6.71Y-2.73
X6.71Y-6.0765
X6.81Y-2.73
X6.81Y-6.0765
X12.358Y-2.73
X12.358Y-6.0765
X12.458Y-2.73
X12.458Y-6.0765
X12.558Y-2.73
X12.558Y-6.0765
T5
X3.33Y-4.16
X3.33Y-7.5065
X3.66Y-2.14
X3.66Y-5.4865
X5.01Y-1.93
X5.01Y-2.23
X5.01Y-5.2765
X5.01Y-5.5765
X5.21Y-1.93
X5.21Y-2.23
X5.21Y-5.2765
X5.21Y-5.5765
X5.47Y-1.94
X5.47Y-2.24
X5.47Y-5.2865
X5.47Y-5.5865
X5.53Y-2.93
X5.53Y-6.2765
X5.67Y-1.94
X5.67Y-2.24
X5.67Y-5.2865
X5.67Y-5.5865
X9.078Y-4.16
X9.078Y-7.5065
X9.408Y-2.14
X9.408Y-5.4865
X10.758Y-1.93
X10.758Y-2.23
X10.758Y-5.2765
X10.758Y-5.5765
X10.958Y-1.93
X10.958Y-2.23
X10.958Y-5.2765
X10.958Y-5.5765
X11.218Y-1.94
X11.218Y-2.24
X11.218Y-5.2865
X11.218Y-5.5865
X11.278Y-2.93
X11.278Y-6.2765
X11.418Y-1.94
X11.418Y-2.24
X11.418Y-5.2865
X11.418Y-5.5865
T6
X6.6813Y-1.98
X6.6813Y-5.3265
X6.8387Y-1.98
X6.8387Y-5.3265
X12.4293Y-1.98
X12.4293Y-5.3265
X12.5867Y-1.98
X12.5867Y-5.3265
T7
X1.7Y-1.58
X1.7Y-4.42
X1.7Y-4.9265
X1.7Y-7.7665
X6.95Y-1.58
X6.95Y-4.42
X6.95Y-4.9265
X6.95Y-7.7665
X7.448Y-1.58
X7.448Y-4.42
X7.448Y-4.9265
X7.448Y-7.7665
X12.698Y-1.58
X12.698Y-4.42
X12.698Y-4.9265
X12.698Y-7.7665
T3
X5.695Y-4.15G85X5.555Y-4.15
G05
X5.695Y-7.4965G85X5.555Y-7.4965
G05
X6.655Y-4.15G85X6.515Y-4.15
G05
X6.655Y-7.4965G85X6.515Y-7.4965
G05
X11.443Y-4.15G85X11.303Y-4.15
G05
X11.443Y-7.4965G85X11.303Y-7.4965
G05
X12.403Y-4.15G85X12.263Y-4.15
G05
X12.403Y-7.4965G85X12.263Y-7.4965
G05
T0
M30
